<svg xmlns="http://www.w3.org/2000/svg" width="80" height="81" fill="none" viewBox="0 0 80 81">
  <mask id="a" width="80" height="81" x="0" y="0" maskUnits="userSpaceOnUse" style="mask-type:luminance">
    <path fill="#fff" d="M80 .082H0v80h80v-80Z"/>
  </mask>
  <g mask="url(#a)">
    <path fill="#5C62D6" d="M9.045 47.264h68.083c.71 0 1.391.286 1.893.796a2.74 2.74 0 0 1 .785 1.923v15.99H6.367v-15.99c0-.721.282-1.413.785-1.923a2.658 2.658 0 0 1 1.893-.796Z"/>
    <path fill="#FEF4EA" d="M60.405 35.624v.147c-.006 1.4.333 2.78.985 4.014a8.723 8.723 0 0 1-.953-3.998c0-3.693 2.212-6.793 5.2-7.663H12.446v7.5h47.96Z"/>
    <path fill="#FCEAD7" d="M60.41 35.771c0 4.025 2.679 7.332 6.165 7.745H12.43v-7.892h47.986c0 .05-.005.098-.005.147Z"/>
    <path fill="#0B8484" d="M1.398 35.624c0 3.087 1.207 6.047 3.355 8.23a11.38 11.38 0 0 0 8.102 3.415V35.624H1.398Z"/>
    <path fill="#0FBFBF" d="M13.118 28.907v13.51H64c1.268 0 2.483.512 3.379 1.421a4.89 4.89 0 0 1 1.4 3.43H12.436V24.737H68.79a4.24 4.24 0 0 1-.311 1.597 4.172 4.172 0 0 1-.89 1.354 4.097 4.097 0 0 1-1.334.904 4.047 4.047 0 0 1-1.573.316H13.118Z"/>
    <path fill="#0FBFBF" d="M12.51 35.624V24.747A11.01 11.01 0 0 0 4.8 27.91a11.35 11.35 0 0 0-3.382 7.714h11.093Zm-11.104.196v.196c.006-.038 0-.125 0-.196Z"/>
    <path fill="#FCEAD7" d="M6.555 35.668A6.8 6.8 0 0 0 8.5 40.437a6.59 6.59 0 0 0 4.696 1.975v-6.744H6.555Z"/>
    <path fill="#FEF4EA" d="M6.555 35.668a6.81 6.81 0 0 1 1.95-4.78 6.607 6.607 0 0 1 4.707-1.98v6.76H6.555Z"/>
    <path fill="#213343" d="M17.332 35.58v18.15l3.042-3.084V35.565l-3.042.016Z"/>
    <path fill="#3E5974" d="M23.404 35.58v18.15l-3.037-3.084V35.565l3.037.016Z"/>
    <path fill="#387D4E" d="M8.256 12.477h68.067c.71 0 1.391.286 1.893.796.503.51.785 1.202.785 1.923v9.523H5.578v-9.523c0-.721.282-1.413.785-1.923a2.658 2.658 0 0 1 1.893-.796Z"/>
    <path fill="#BD138D" d="M2.65 65.973h66.979a3.72 3.72 0 0 1 2.651 1.115 3.837 3.837 0 0 1 1.098 2.692v10.285H-.039V68.704a2.756 2.756 0 0 1 .784-1.934 2.642 2.642 0 0 1 1.904-.796Z"/>
    <path fill="#850D63" d="M12.415 65.973H6.352v14.081h6.063V65.973Z"/>
    <path fill="#CE4EAA" d="M52.813 70.112H20.199v5.847h32.614v-5.847Z"/>
    <path fill="#8589E0" d="M73.71 47.264h-4.874v18.71h4.874v-18.71Zm-56.398 0h-4.875v18.71h4.875v-18.71Z"/>
    <path fill="#4FB06D" d="M74.764 12.537h-1.58v12.177h1.58V12.537Zm-61.192 0h-1.58v12.177h1.58V12.537Z"/>
    <path fill="#7BC492" d="M42.954 22.196c5.757 0 10.424-1.61 10.424-3.595 0-1.986-4.667-3.595-10.424-3.595-5.756 0-10.423 1.61-10.423 3.595s4.667 3.595 10.423 3.595Z"/>
    <path fill="#850D63" d="M67.141 65.973h-6.063v14.081h6.063V65.973Z"/>
  </g>
</svg>
