<svg xmlns="http://www.w3.org/2000/svg" width="80" height="81" fill="none" viewBox="0 0 80 81">
  <path fill="#FFCD78" d="M39.953 3.443h-.043A17.31 17.31 0 0 0 29.84 6.66a17.734 17.734 0 0 0-6.413 8.513 18.023 18.023 0 0 0-.423 10.71 17.793 17.793 0 0 0 5.722 9.007 14.882 14.882 0 0 1 2.825 5.083c.6 1.867.829 3.837.673 5.795h15.41a14.986 14.986 0 0 1 2.094-8.898 12.225 12.225 0 0 1 2.11-2.594 17.82 17.82 0 0 0 5.205-9.075 18.011 18.011 0 0 0-.753-10.473 17.713 17.713 0 0 0-6.449-8.21 17.301 17.301 0 0 0-9.888-3.075Z"/>
  <path fill="#FFBC4B" d="M39.931 3.443A17.31 17.31 0 0 0 29.854 6.65a17.733 17.733 0 0 0-6.424 8.513 18.023 18.023 0 0 0-.427 10.715 17.792 17.792 0 0 0 5.723 9.012 14.882 14.882 0 0 1 2.825 5.083c.6 1.867.829 3.837.673 5.795h7.761V3.443h-.054Z"/>
  <path fill="#FFEBC9" d="M57.443 21.206a17.909 17.909 0 0 0-5.116-12.55 17.366 17.366 0 0 0-12.35-5.213v20.532h17.252c.142-.916.214-1.842.214-2.769Z"/>
  <path fill="#FCEAD7" d="M47.628 45.724h-15.41v1.365h15.41v-1.365Z"/>
  <path fill="#2E475D" d="M47.628 46.67h-15.41v3.58h15.41v-3.58Z"/>
  <path fill="#408EC5" d="M39.996 46.665h-7.777v3.579h7.777v-3.579Z"/>
  <path fill="#3E5974" d="M47.618 50.25h-15.4v1.381h15.4v-1.382Z"/>
  <path fill="#fff" d="M47.618 51.55h-15.4v1.38h15.4v-1.38Z"/>
  <path fill="#2E475D" d="M47.607 52.866h-7.691l-7.697-.028c0 1.026.199 2.042.586 2.99a7.82 7.82 0 0 0 1.668 2.535 7.684 7.684 0 0 0 2.498 1.693 7.59 7.59 0 0 0 2.945.593c2.035 0 3.987-.82 5.429-2.278a7.871 7.871 0 0 0 2.262-5.505Z"/>
  <path fill="#408EC5" d="M50.156 5.575a2.666 2.666 0 0 0 1.404-.75c.382-.389.64-.886.739-1.426a.043.043 0 0 1 .08 0c.099.54.357 1.037.74 1.425.382.389.87.65 1.402.751a.04.04 0 0 1 .03.013.044.044 0 0 1-.03.074c-.531.1-1.02.362-1.403.75-.382.389-.64.886-.739 1.426a.043.043 0 0 1-.08 0 2.733 2.733 0 0 0-.74-1.425 2.665 2.665 0 0 0-1.403-.751.044.044 0 0 1 0-.087Z"/>
  <path fill="#0068B1" d="M48.552 5.88c.099.54.356 1.036.739 1.424.382.389.871.65 1.403.751a.044.044 0 0 1 0 .082c-.532.1-1.02.362-1.403.75s-.64.885-.74 1.425a.044.044 0 0 1-.015.02.042.042 0 0 1-.049 0 .044.044 0 0 1-.016-.02 2.733 2.733 0 0 0-.739-1.425 2.665 2.665 0 0 0-1.403-.75.043.043 0 0 1-.028-.041.044.044 0 0 1 .028-.041c.532-.1 1.02-.362 1.403-.75.383-.389.64-.886.74-1.426a.044.044 0 0 1 .015-.02.042.042 0 0 1 .049 0 .044.044 0 0 1 .016.02Z"/>
  <path fill="#fff" d="M49.813 11.6a2.659 2.659 0 0 0 1.404-.75c.382-.388.64-.885.739-1.425 0-.011.004-.022.012-.03a.043.043 0 0 1 .073.03c.1.54.357 1.037.74 1.425.382.389.871.65 1.403.75a.044.044 0 0 1 0 .082 2.674 2.674 0 0 0-1.404.751c-.382.388-.64.885-.739 1.425a.044.044 0 0 1-.012.03.043.043 0 0 1-.073-.03 2.733 2.733 0 0 0-.74-1.425 2.665 2.665 0 0 0-1.403-.75.043.043 0 0 1-.028-.041c0-.01.003-.018.008-.025a.043.043 0 0 1 .02-.016Z"/>
  <path fill="#0068B1" d="M39.985 60.676v-7.81h-.07l-7.696-.028c0 1.026.199 2.042.586 2.99a7.82 7.82 0 0 0 1.668 2.535 7.684 7.684 0 0 0 2.498 1.693 7.59 7.59 0 0 0 2.945.593l.07.027Z"/>
  <path fill="#fff" d="M44.012 22.12a1.655 1.655 0 0 1 1.19.498 1.705 1.705 0 0 1 .491 1.21c.003.049.003.098 0 .146h3.412c.146-.343.221-.713.22-1.087a2.798 2.798 0 0 0-.678-1.811 2.699 2.699 0 0 0-3.542-.496 2.77 2.77 0 0 0-1.136 1.556l.043-.016Z"/>
  <path fill="#fff" d="M42.315 23.828a1.72 1.72 0 0 1 .308-.993 1.68 1.68 0 0 1 .82-.626 1.667 1.667 0 0 1 1.872.564 3.7 3.7 0 0 0 .01-3.436 3.636 3.636 0 0 0-1.163-1.319 3.565 3.565 0 0 0-1.638-.608 3.472 3.472 0 0 0-1.489.152v2.475c.003.02.003.04 0 .06a.66.66 0 0 1-.282.459.635.635 0 0 1-.527.084l-.578-.146a.647.647 0 0 0-.444.163.657.657 0 0 0-.053.931.64.64 0 0 0 .486.206l.61-.153a.633.633 0 0 1 .712.285.66.66 0 0 1 .092.26v1.789h1.291a1.354 1.354 0 0 1-.027-.147Zm.695 4.155a1.726 1.726 0 0 1-.49 1.207 1.675 1.675 0 0 1-1.186.5h-.15v3.465c.338.149.702.225 1.07.223a2.708 2.708 0 0 0 1.784-.688 2.808 2.808 0 0 0 .489-3.597 2.735 2.735 0 0 0-1.533-1.154s.016.028.016.044Z"/>
  <path fill="#fff" d="M41.334 26.28c.35 0 .69.11.975.315.285.206.5.497.614.833.113.336.121.7.022 1.04-.1.34-.302.64-.578.858a3.557 3.557 0 0 0 3.399.025c.525-.28.973-.688 1.305-1.187a3.69 3.69 0 0 0 .599-1.672 3.63 3.63 0 0 0-.15-1.512h-2.528a.637.637 0 0 1-.452-.286.657.657 0 0 1-.084-.535l.145-.587a.67.67 0 0 0-.16-.451.63.63 0 0 0-.91-.058.646.646 0 0 0-.21.482l.15.62a.664.664 0 0 1-.086.53.646.646 0 0 1-.45.285h-1.751v1.311l.15-.01Zm-4.289.75a1.66 1.66 0 0 1-1.194-.494 1.71 1.71 0 0 1-.499-1.207 1.433 1.433 0 0 1 0-.153h-3.39a2.889 2.889 0 0 0-.22 1.088 2.8 2.8 0 0 0 .676 1.813 2.699 2.699 0 0 0 3.544.5 2.77 2.77 0 0 0 1.136-1.557l-.053.01Z"/>
  <path fill="#fff" d="M38.719 25.329c0 .355-.108.701-.31.99-.203.29-.49.507-.82.623-.33.116-.689.124-1.024.023a1.676 1.676 0 0 1-.846-.587 3.769 3.769 0 0 0-.412 2.067 3.648 3.648 0 0 0 1.604 2.72 3.565 3.565 0 0 0 3.093.424v-2.53a.665.665 0 0 1 .284-.456.643.643 0 0 1 .525-.087l.579.152a.659.659 0 0 0 .445-.164.677.677 0 0 0 .224-.423.668.668 0 0 0-.168-.5.649.649 0 0 0-.474-.213l-.611.152a.638.638 0 0 1-.522-.09.653.653 0 0 1-.282-.453v-1.8h-1.29c0 .048.005.103.005.152Zm-.544-4.346c0-.452.176-.886.49-1.206.315-.32.74-.5 1.186-.502h.15v-3.453a2.756 2.756 0 0 0-1.071-.223 2.708 2.708 0 0 0-1.786.686 2.808 2.808 0 0 0-.493 3.598c.358.56.903.97 1.534 1.155l-.01-.055Z"/>
  <path fill="#fff" d="M39.85 22.685a1.66 1.66 0 0 1-.958-.321 1.7 1.7 0 0 1-.602-.823 1.726 1.726 0 0 1-.029-1.024 1.7 1.7 0 0 1 .556-.856 3.553 3.553 0 0 0-4.017.411 3.66 3.66 0 0 0-1.152 1.797 3.709 3.709 0 0 0 .038 2.143h2.49a.641.641 0 0 1 .45.289.663.663 0 0 1 .086.533l-.15.587a.67.67 0 0 0 .16.451.65.65 0 0 0 .419.224.633.633 0 0 0 .494-.165.653.653 0 0 0 .212-.483l-.155-.62a.668.668 0 0 1 .282-.72.64.64 0 0 1 .254-.096h1.762v-1.338l-.14.011Z"/>
  <path fill="#2E475D" d="M79.358 76.323H40.012v-4.237h35.19a4.14 4.14 0 0 1 2.94 1.247 4.27 4.27 0 0 1 1.216 2.99Z"/>
  <path fill="#B2D1E7" d="M52.383 72.086V59.457H74.53c.284 0 .556.115.757.319.201.204.314.48.314.77v11.54h-23.22Z"/>
  <path fill="#B2D1E7" d="M39.996 72.087c.002-1.663.327-3.31.957-4.845a12.661 12.661 0 0 1 2.711-4.102 12.442 12.442 0 0 1 4.053-2.734 12.29 12.29 0 0 1 4.775-.948v12.629H39.996Z"/>
  <path fill="#3E5974" d="M39.995 72.07v4.237H.648a4.27 4.27 0 0 1 1.217-2.99 4.14 4.14 0 0 1 2.94-1.247h35.19Z"/>
  <path fill="#408EC5" d="M4.387 72.081V60.54c0-.289.113-.565.313-.77.201-.203.474-.318.758-.318h22.148v12.63H4.386Z"/>
  <path fill="#408EC5" d="M39.996 72.087a12.814 12.814 0 0 0-.954-4.838 12.659 12.659 0 0 0-2.704-4.1 12.442 12.442 0 0 0-4.044-2.735 12.288 12.288 0 0 0-4.767-.956v12.629h12.47Z"/>
  <path fill="#2E475D" d="M34.992 76.334a5.542 5.542 0 0 0 2.022 2.407c.888.587 1.926.9 2.986.9a5.42 5.42 0 0 0 2.987-.9 5.542 5.542 0 0 0 2.021-2.407H34.992Z"/>
</svg>
