<svg xmlns="http://www.w3.org/2000/svg" width="70" height="70" fill="none" viewBox="0 0 70 70">
  <path fill="#4285F4" d="M4.773 61.513h11.136V34.468L0 22.536v34.205c0 2.64 2.14 4.772 4.773 4.772Z"/>
  <path fill="#34A853" d="M54.09 61.513h11.136a4.772 4.772 0 0 0 4.773-4.772V22.536l-15.91 11.932"/>
  <path fill="#FBBC04" d="M54.09 13.786v20.682l15.909-11.932v-6.363c0-5.903-6.738-9.267-11.455-5.728"/>
  <path fill="#EA4335" d="M15.91 34.468V13.786l19.091 14.318 19.091-14.318v20.682l-19.09 14.318"/>
  <path fill="#C5221F" d="M0 16.173v6.363l15.91 11.932V13.786l-4.456-3.34C6.73 6.905 0 10.27 0 16.172Z"/>
</svg>
