<svg xmlns="http://www.w3.org/2000/svg" width="70" height="70" fill="none" viewBox="0 0 70 70">
  <g clip-path="url(#a)">
    <path fill="#3C8BD9" d="M23.82 11.053c.676-1.776 1.606-3.41 2.988-4.736C32.333.933 41.467 2.286 45.216 9.052c2.82 5.13 5.808 10.149 8.711 15.223 4.85 8.43 9.755 16.858 14.547 25.316 4.031 7.075-.338 16.012-8.345 17.224-4.905.733-9.5-1.522-12.037-5.92-4.257-7.414-8.542-14.828-12.799-22.214a2.548 2.548 0 0 0-.31-.451c-.451-.367-.648-.902-.93-1.382-1.89-3.326-3.834-6.625-5.723-9.923-1.212-2.143-2.481-4.257-3.693-6.4-1.1-1.916-1.607-4.003-1.55-6.201.084-1.128.225-2.256.732-3.27Z"/>
    <path fill="#FABC04" d="M23.823 11.053c-.254 1.015-.48 2.03-.536 3.101-.084 2.369.508 4.567 1.692 6.625a2963.68 2963.68 0 0 1 9.274 16.041c.282.48.508.959.79 1.41a1415.306 1415.306 0 0 1-5.103 8.767c-2.368 4.088-4.736 8.204-7.132 12.291-.113 0-.141-.056-.17-.14-.028-.226.057-.423.113-.649 1.156-4.229.198-7.978-2.706-11.192-1.776-1.945-4.031-3.044-6.625-3.41-3.383-.48-6.371.394-9.05 2.508-.478.367-.789.902-1.352 1.184-.113 0-.17-.056-.198-.14 1.353-2.34 2.678-4.68 4.032-7.02a9747.693 9747.693 0 0 1 16.773-29.065c.057-.113.141-.198.198-.31Z"/>
    <path fill="#34A852" d="M2.931 47.533c.536-.48 1.043-.987 1.607-1.438 6.85-5.413 17.14-1.494 18.634 7.076.367 2.058.17 4.031-.45 6.005-.029.169-.057.31-.113.479-.254.45-.48.93-.762 1.381-2.509 4.144-6.202 6.202-11.05 5.892C5.243 66.533.873 62.361.112 56.836c-.366-2.678.17-5.187 1.55-7.5.283-.507.62-.958.931-1.465.14-.113.085-.338.338-.338Z"/>
    <path fill="#FABC04" d="M2.932 47.533c-.113.112-.113.31-.31.338-.029-.197.084-.31.197-.451l.113.113Z"/>
    <path fill="#E1C025" d="M22.61 59.655c-.113-.198 0-.339.112-.48l.113.113-.226.367Z"/>
  </g>
  <defs>
    <clipPath id="a">
      <path fill="#fff" d="M0 0h70v70H0z"/>
    </clipPath>
  </defs>
</svg>
