<svg xmlns="http://www.w3.org/2000/svg" width="120" height="61" fill="none" viewBox="0 0 120 61">
  <path fill="#fff" d="M40.111 24.268h-3.906v3.226h3.906c1.054 0 1.711-.68 1.711-1.624 0-.945-.657-1.602-1.71-1.602Zm.11 5.882h-4.016v3.444h4.016c1.185 0 1.887-.68 1.887-1.732 0-.922-.658-1.712-1.887-1.712Zm14.945-6.014c-2.7 0-4.434 2.063-4.434 4.807 0 2.743 1.734 4.806 4.434 4.806 2.699 0 4.455-2.084 4.455-4.806 0-2.723-1.756-4.807-4.456-4.807Zm0 0c-2.7 0-4.434 2.063-4.434 4.807 0 2.743 1.734 4.806 4.434 4.806 2.699 0 4.455-2.084 4.455-4.806 0-2.723-1.756-4.807-4.456-4.807ZM40.22 30.15h-4.016v3.444h4.016c1.185 0 1.887-.68 1.887-1.732 0-.922-.658-1.712-1.887-1.712Zm-.11-5.882h-3.906v3.226h3.906c1.054 0 1.711-.68 1.711-1.624 0-.945-.657-1.602-1.71-1.602Zm0 0h-3.906v3.226h3.906c1.054 0 1.711-.68 1.711-1.624 0-.945-.657-1.602-1.71-1.602Zm.11 5.882h-4.016v3.444h4.016c1.185 0 1.887-.68 1.887-1.732 0-.922-.658-1.712-1.887-1.712Zm14.945-6.014c-2.7 0-4.434 2.063-4.434 4.807 0 2.743 1.734 4.806 4.434 4.806 2.699 0 4.455-2.084 4.455-4.806 0-2.723-1.756-4.807-4.456-4.807Zm0 0c-2.7 0-4.434 2.063-4.434 4.807 0 2.743 1.734 4.806 4.434 4.806 2.699 0 4.455-2.084 4.455-4.806 0-2.723-1.756-4.807-4.456-4.807ZM40.22 30.15h-4.016v3.444h4.016c1.185 0 1.887-.68 1.887-1.732 0-.922-.658-1.712-1.887-1.712Zm1.601-4.28c0-.9-.657-1.602-1.71-1.602h-3.907v3.226h3.906c1.054 0 1.711-.68 1.711-1.624ZM0 10.08v40h120v-40H0Zm9.012 11.356h3.116v14.638H9.012V21.437Zm20.431 20.87H9.023v-3.115h20.42v3.115Zm0-6.232h-3.006l-6.979-9.832v9.832h-3.117V21.437h3.205l6.78 9.48v-9.48h3.117v14.638Zm11.59.176h-7.945V21.613h7.703c2.788 0 4.213 1.777 4.213 3.73 0 1.844-1.14 3.073-2.523 3.358 1.558.242 2.809 1.755 2.809 3.6 0 2.194-1.47 3.95-4.257 3.95Zm14.133.263c-4.41 0-7.637-3.16-7.637-7.571 0-4.412 3.226-7.572 7.636-7.572s7.66 3.16 7.66 7.572c0 4.411-3.226 7.57-7.66 7.57Zm23.24-6.123c0 3.644-2.085 6.123-6.518 6.123s-6.561-2.502-6.561-6.1v-8.801h3.16v8.69c0 2.042 1.118 3.446 3.401 3.446 2.283 0 3.357-1.404 3.357-3.446v-8.69h3.16v8.778Zm16.744 5.86h-3.008l-6.977-9.832v9.832h-3.117V21.613h3.203l6.782 9.48v-9.48h3.117V36.25Zm9.261 0h-5.772V21.613h5.772c4.586 0 7.768 2.918 7.768 7.33 0 4.411-3.182 7.308-7.768 7.308Zm0-11.895h-2.655v9.152h2.655c2.897 0 4.586-2.086 4.586-4.565 0-2.48-1.58-4.587-4.586-4.587Zm-49.245-.22c-2.7 0-4.434 2.063-4.434 4.807 0 2.743 1.734 4.806 4.434 4.806 2.699 0 4.455-2.084 4.455-4.806 0-2.723-1.756-4.807-4.456-4.807ZM40.22 30.15h-4.016v3.444h4.016c1.185 0 1.887-.68 1.887-1.732 0-.922-.658-1.712-1.887-1.712Zm1.601-4.28c0-.9-.657-1.602-1.71-1.602h-3.907v3.226h3.906c1.054 0 1.711-.68 1.711-1.624Zm-1.71-1.602h-3.907v3.226h3.906c1.054 0 1.711-.68 1.711-1.624 0-.945-.657-1.602-1.71-1.602Zm.108 5.882h-4.015v3.444h4.016c1.185 0 1.887-.68 1.887-1.732 0-.922-.658-1.712-1.887-1.712Zm14.946-6.014c-2.7 0-4.434 2.063-4.434 4.807 0 2.743 1.734 4.806 4.434 4.806 2.699 0 4.455-2.084 4.455-4.806 0-2.723-1.756-4.807-4.456-4.807Zm0 0c-2.7 0-4.434 2.063-4.434 4.807 0 2.743 1.734 4.806 4.434 4.806 2.699 0 4.455-2.084 4.455-4.806 0-2.723-1.756-4.807-4.456-4.807ZM40.22 30.15h-4.016v3.444h4.016c1.185 0 1.887-.68 1.887-1.732 0-.922-.658-1.712-1.887-1.712Zm-.11-5.882h-3.906v3.226h3.906c1.054 0 1.711-.68 1.711-1.624 0-.945-.657-1.602-1.71-1.602Zm0 0h-3.906v3.226h3.906c1.054 0 1.711-.68 1.711-1.624 0-.945-.657-1.602-1.71-1.602Zm.11 5.882h-4.016v3.444h4.016c1.185 0 1.887-.68 1.887-1.732 0-.922-.658-1.712-1.887-1.712Zm0 0h-4.016v3.444h4.016c1.185 0 1.887-.68 1.887-1.732 0-.922-.658-1.712-1.887-1.712Zm-.11-5.882h-3.906v3.226h3.906c1.054 0 1.711-.68 1.711-1.624 0-.945-.657-1.602-1.71-1.602Z"/>
</svg>
