<svg xmlns="http://www.w3.org/2000/svg" width="80" height="81" fill="none" viewBox="0 0 80 81">
  <mask id="a" width="80" height="81" x="0" y="0" maskUnits="userSpaceOnUse" style="mask-type:luminance">
    <path fill="#fff" d="M80 .082H0v80h80v-80Z"/>
  </mask>
  <g mask="url(#a)">
    <path fill="#192733" d="M76.958 18.326v37.952c0 .055-.026.104-.032.158-.026.223-.032.446-.075.664a5.121 5.121 0 0 1-1.756 2.95 4.982 4.982 0 0 1-3.204 1.145H8.217a5.32 5.32 0 0 1-1.018-.087 4.998 4.998 0 0 1-2.8-1.563 5.133 5.133 0 0 1-1.302-2.962 1.431 1.431 0 0 0-.054-.218V18.293a.478.478 0 0 0 .037-.092c0-.169.033-.332.065-.5a5.084 5.084 0 0 1 .73-1.95 5 5 0 0 1 1.444-1.482 4.72 4.72 0 0 1 2.416-.838l.096-.033h64.366a.962.962 0 0 0 .128.033c.198.027.397.044.595.082a4.877 4.877 0 0 1 2.678 1.533 4.932 4.932 0 0 1 1.317 3.15c.012.044.026.087.043.13Z"/>
    <path fill="#EAF0F6" d="M8.217 61.478a5.407 5.407 0 0 1-1.07-.093 5.12 5.12 0 0 1-2.818-1.539 5.31 5.31 0 0 1-1.5-3.263.404.404 0 0 0 0-.087l-.032-.153V18.212l.048-.109v-.163c0-.109 0-.212.043-.321a5.369 5.369 0 0 1 .775-2.033 5.28 5.28 0 0 1 1.512-1.546 4.947 4.947 0 0 1 2.55-.88l.112-.034h64.526l.193.028c.14 0 .278.032.418.06a5.092 5.092 0 0 1 2.833 1.631 5.157 5.157 0 0 1 1.387 3.318l.032.141v38.083a.219.219 0 0 0 0 .082v.217a4.762 4.762 0 0 1-.058.473 5.377 5.377 0 0 1-1.849 3.108 5.23 5.23 0 0 1-3.374 1.2l-63.728.01ZM3.311 56.31a.69.69 0 0 1 .048.201 4.866 4.866 0 0 0 1.227 2.82 4.738 4.738 0 0 0 3.626 1.575h63.68a4.7 4.7 0 0 0 3.036-1.08 4.833 4.833 0 0 0 1.661-2.798c.024-.135.04-.271.048-.408v-.234a1.094 1.094 0 0 1 0-.13V18.358a.759.759 0 0 1-.032-.147 4.666 4.666 0 0 0-1.189-2.964 4.627 4.627 0 0 0-2.57-1.469c-.124-.027-.247-.038-.37-.054l-.21-.027H7.876a.316.316 0 0 1-.129 0 4.492 4.492 0 0 0-2.282.794 4.767 4.767 0 0 0-1.363 1.393 4.847 4.847 0 0 0-.699 1.832c0 .092-.027.19-.037.283-.011.092 0 .141 0 .206a.418.418 0 0 1-.033.115l-.02 37.99Z"/>
    <path fill="#C4C1E4" d="M73.51 17.217H7.023v40.916H73.51V17.217Z"/>
    <path fill="#2E475D" d="M74.055 17.217H6.09v40.916h67.965V17.217Z"/>
    <path fill="#3E5974" d="M74.063 17.146H6.082v2.371h67.98v-2.371Z"/>
    <path fill="#000" d="M40.028 66.64c22.086 0 39.99-.526 39.99-1.175s-17.904-1.175-39.99-1.175C17.943 64.29.04 64.816.04 65.465s17.904 1.175 39.99 1.175Z" opacity=".05"/>
    <path fill="#B6C7D6" d="M3.258 65.019h73.45c1.387 0 3.31-2.475 3.31-4.39H.039c0 1.937 1.832 4.39 3.22 4.39Z"/>
    <path fill="#7691AD" d="M40.802 60.613h-6.556c0 1.12.61 1.545.825 1.545h10.996c.22 0 .83-.424.83-1.545h-6.095Z"/>
    <path fill="#DBE4ED" d="M18.953 26.294a.806.806 0 0 0-.23-.565.781.781 0 0 0-.557-.234h-5.843a.782.782 0 0 0-.557.234.806.806 0 0 0 0 1.13c.148.15.348.235.557.235h5.843a.776.776 0 0 0 .557-.235.802.802 0 0 0 .23-.565Z"/>
    <path fill="#57D2D2" d="M32.793 29.552a.806.806 0 0 0-.23-.565.782.782 0 0 0-.557-.235h-5.844a.781.781 0 0 0-.556.235.806.806 0 0 0 0 1.13c.147.15.347.235.556.235h5.844a.783.783 0 0 0 .557-.235.806.806 0 0 0 .23-.565Z"/>
    <path fill="#516F90" d="M18.964 32.494a.806.806 0 0 0-.23-.565.781.781 0 0 0-.557-.234h-5.854a.782.782 0 0 0-.557.234.806.806 0 0 0 0 1.13c.148.15.348.235.557.235h5.854a.782.782 0 0 0 .557-.234.806.806 0 0 0 .23-.566Z"/>
    <path fill="#57D2D2" d="M41.598 32.494a.806.806 0 0 0-.23-.565.781.781 0 0 0-.557-.234h-5.844a.782.782 0 0 0-.557.234.806.806 0 0 0 0 1.13c.148.15.348.235.557.235h5.844a.778.778 0 0 0 .556-.234.806.806 0 0 0 .231-.566Zm-7.017 7.772a.804.804 0 0 0-.227-.565.781.781 0 0 0-.555-.234h-5.844a.781.781 0 0 0-.556.234.806.806 0 0 0 0 1.13.78.78 0 0 0 .556.235H33.8a.773.773 0 0 0 .555-.235.796.796 0 0 0 .227-.565Z"/>
    <path fill="#DBE4ED" d="M49.74 32.494a.806.806 0 0 0-.23-.565.781.781 0 0 0-.557-.234h-5.844a.779.779 0 0 0-.56.232.8.8 0 0 0-.233.567c0 .212.083.416.231.566.148.15.348.234.557.234h5.849a.78.78 0 0 0 .556-.234.806.806 0 0 0 .231-.566Z"/>
    <path fill="#FF8933" d="M45.428 29.552a.806.806 0 0 0-.23-.565.782.782 0 0 0-.557-.235h-5.844a.781.781 0 0 0-.543.242.805.805 0 0 0 .008 1.123c.148.15.348.235.557.235h5.822a.782.782 0 0 0 .556-.235.806.806 0 0 0 .231-.565Z"/>
    <path fill="#516F90" d="M15.536 29.563a.806.806 0 0 0-.23-.566.781.781 0 0 0-.557-.234h-2.426a.781.781 0 0 0-.557.234.806.806 0 0 0 0 1.131c.148.15.348.234.557.234h2.42a.776.776 0 0 0 .56-.232.8.8 0 0 0 .233-.567Z"/>
    <path fill="#7BC492" d="M22.425 29.563a.806.806 0 0 0-.23-.566.781.781 0 0 0-.557-.234h-2.421a.781.781 0 0 0-.557.234.806.806 0 0 0 0 1.131c.148.15.348.234.557.234h2.421a.78.78 0 0 0 .557-.234.806.806 0 0 0 .23-.565Z"/>
    <path fill="#516F90" d="M23.511 32.473a.806.806 0 0 0-.23-.566.781.781 0 0 0-.557-.234h-2.426a.773.773 0 0 0-.555.235.796.796 0 0 0-.227.565.805.805 0 0 0 .227.565.78.78 0 0 0 .555.234h2.426a.78.78 0 0 0 .557-.234.806.806 0 0 0 .23-.565Z"/>
    <path fill="#DBE4ED" d="M15.562 40.266a.806.806 0 0 0-.23-.565.781.781 0 0 0-.557-.234h-2.421a.78.78 0 0 0-.557.234.806.806 0 0 0 0 1.13.78.78 0 0 0 .557.235h2.42c.21 0 .41-.084.558-.234a.806.806 0 0 0 .23-.566Zm6.566 0a.806.806 0 0 0-.23-.565.781.781 0 0 0-.557-.234h-2.42a.78.78 0 0 0-.558.234.806.806 0 0 0 0 1.13.78.78 0 0 0 .557.235h2.421a.78.78 0 0 0 .557-.234.806.806 0 0 0 .23-.566Z"/>
    <path fill="#57D2D2" d="M28.388 32.473a.806.806 0 0 0-.23-.566.782.782 0 0 0-.558-.234h-2.426a.782.782 0 0 0-.557.235.806.806 0 0 0 0 1.13c.148.15.348.234.557.234h2.421a.778.778 0 0 0 .56-.232.8.8 0 0 0 .233-.567Z"/>
    <path fill="#DBE4ED" d="M33.21 32.473a.806.806 0 0 0-.23-.566.781.781 0 0 0-.557-.234h-2.426a.773.773 0 0 0-.555.235.796.796 0 0 0-.227.565.805.805 0 0 0 .227.565.78.78 0 0 0 .555.234h2.426c.21 0 .41-.084.557-.234a.806.806 0 0 0 .23-.565Z"/>
    <path fill="#57D2D2" d="M23.414 43.073a.804.804 0 0 0-.23-.563.78.78 0 0 0-.557-.231h-5.844a.772.772 0 0 0-.556.23.794.794 0 0 0-.23.564c0 .212.082.415.23.565a.78.78 0 0 0 .556.234h5.844a.78.78 0 0 0 .557-.234.806.806 0 0 0 .23-.565Zm22.652 0a.8.8 0 0 0-.23-.562.776.776 0 0 0-.552-.232h-5.86a.771.771 0 0 0-.556.23.797.797 0 0 0-.231.564.805.805 0 0 0 .229.567.783.783 0 0 0 .558.232h5.844a.77.77 0 0 0 .565-.228.795.795 0 0 0 .233-.571Z"/>
    <path fill="#DBE4ED" d="M54.192 43.073a.805.805 0 0 0-.231-.563.782.782 0 0 0-.557-.231h-5.843a.771.771 0 0 0-.557.23.797.797 0 0 0-.23.564c0 .212.082.415.23.565.148.15.348.234.557.234h5.843a.78.78 0 0 0 .557-.234.806.806 0 0 0 .23-.565ZM27.96 43.05a.804.804 0 0 0-.23-.563.78.78 0 0 0-.557-.23h-2.42a.77.77 0 0 0-.557.23.794.794 0 0 0-.231.564c0 .212.083.415.23.565.148.15.348.234.557.234h2.421a.78.78 0 0 0 .557-.234.806.806 0 0 0 .23-.565Z"/>
    <path fill="#57D2D2" d="M32.847 43.05a.805.805 0 0 0-.23-.563.782.782 0 0 0-.557-.23h-2.421a.77.77 0 0 0-.556.23.794.794 0 0 0-.231.564c0 .212.083.415.23.565.148.15.348.234.557.234h2.421a.78.78 0 0 0 .557-.234.806.806 0 0 0 .23-.565Z"/>
    <path fill="#DBE4ED" d="M37.652 43.05a.805.805 0 0 0-.231-.563.781.781 0 0 0-.556-.23h-2.421a.77.77 0 0 0-.557.23.794.794 0 0 0-.23.564c0 .212.082.415.23.565.148.15.348.234.557.234h2.42a.776.776 0 0 0 .557-.234.802.802 0 0 0 .23-.565Z"/>
    <path fill="#7BC492" d="M54.437 32.473a.806.806 0 0 0-.23-.566.782.782 0 0 0-.557-.234h-2.421a.781.781 0 0 0-.557.235.806.806 0 0 0 0 1.13c.148.15.348.234.557.234h2.42c.21 0 .41-.084.557-.234a.806.806 0 0 0 .231-.565Z"/>
    <path fill="#57D2D2" d="M59.32 32.473a.806.806 0 0 0-.23-.566.781.781 0 0 0-.557-.234h-2.421a.782.782 0 0 0-.557.235.806.806 0 0 0 0 1.13c.148.15.348.234.557.234h2.42c.21 0 .41-.084.557-.234a.806.806 0 0 0 .23-.565Z"/>
    <path fill="#7BC492" d="M43.82 40.299a.806.806 0 0 0-.23-.565.78.78 0 0 0-.557-.235h-2.421a.78.78 0 0 0-.557.235.806.806 0 0 0 0 1.13c.148.15.348.235.557.235h2.42a.78.78 0 0 0 .557-.235.806.806 0 0 0 .231-.565Z"/>
    <path fill="#57D2D2" d="M48.367 40.299a.806.806 0 0 0-.23-.565.78.78 0 0 0-.557-.235h-2.422a.781.781 0 0 0-.556.235.806.806 0 0 0-.172.872.795.795 0 0 0 .426.433.77.77 0 0 0 .302.06h2.422a.78.78 0 0 0 .556-.235.806.806 0 0 0 .23-.565Z"/>
    <path fill="#DBE4ED" d="M17.775 29.563a.806.806 0 0 0-.23-.566.781.781 0 0 0-.558-.234h-.08a.772.772 0 0 0-.555.235.795.795 0 0 0-.227.565.804.804 0 0 0 .227.565.781.781 0 0 0 .555.234h.08c.21 0 .41-.084.557-.234a.806.806 0 0 0 .23-.565Z"/>
    <path fill="#516F90" d="M13.243 37.547a.805.805 0 0 0-.23-.563.782.782 0 0 0-.557-.231h-.075a.772.772 0 0 0-.556.23.794.794 0 0 0-.231.564.806.806 0 0 0 .229.567.78.78 0 0 0 .558.233h.075c.209 0 .41-.085.557-.235a.806.806 0 0 0 .23-.565Z"/>
    <path fill="#DBE4ED" d="M17.73 40.337a.806.806 0 0 0-.23-.565.781.781 0 0 0-.557-.234h-.08a.777.777 0 0 0-.56.232.8.8 0 0 0-.233.567c0 .212.083.415.23.566.148.15.349.234.558.234h.08a.774.774 0 0 0 .56-.233.8.8 0 0 0 .233-.567Z"/>
    <path fill="#F62D71" d="M24.436 40.337a.806.806 0 0 0-.23-.565.78.78 0 0 0-.557-.234h-.08a.78.78 0 0 0-.557.234.806.806 0 0 0 0 1.13.78.78 0 0 0 .557.235h.075a.777.777 0 0 0 .56-.233.8.8 0 0 0 .232-.567Z"/>
    <path fill="#DBE4ED" d="M26.67 40.337a.806.806 0 0 0-.232-.565.78.78 0 0 0-.556-.234h-.075a.78.78 0 0 0-.557.234.806.806 0 0 0 0 1.13.78.78 0 0 0 .557.235h.075a.78.78 0 0 0 .556-.235.806.806 0 0 0 .231-.565Z"/>
    <path fill="#F62D71" d="M56.241 40.266a.806.806 0 0 0-.23-.565.78.78 0 0 0-.557-.234H49.61a.77.77 0 0 0-.555.234.795.795 0 0 0-.227.565.807.807 0 0 0 .227.565.782.782 0 0 0 .555.235h5.844a.77.77 0 0 0 .558-.233.794.794 0 0 0 .229-.567Z"/>
    <path fill="#57D2D2" d="M60.843 40.299a.806.806 0 0 0-.23-.565.78.78 0 0 0-.557-.235h-2.42a.781.781 0 0 0-.558.235.806.806 0 0 0 0 1.13c.148.15.348.235.557.235h2.421c.209 0 .41-.085.557-.235a.806.806 0 0 0 .23-.565Z"/>
    <path fill="#F62D71" d="M68.723 40.266a.806.806 0 0 0-.23-.565.781.781 0 0 0-.557-.234h-5.844a.78.78 0 0 0-.557.234.806.806 0 0 0 0 1.13.78.78 0 0 0 .557.235h5.844a.78.78 0 0 0 .556-.234.806.806 0 0 0 .231-.566Z"/>
    <path fill="#DBE4ED" d="M36.825 40.337a.806.806 0 0 0-.23-.565.78.78 0 0 0-.557-.234h-.075a.781.781 0 0 0-.557.234.806.806 0 0 0 0 1.13c.148.15.348.235.557.235h.075a.78.78 0 0 0 .557-.235.806.806 0 0 0 .23-.565Zm2.239 0a.806.806 0 0 0-.23-.565.781.781 0 0 0-.558-.234h-.08a.77.77 0 0 0-.555.234.796.796 0 0 0-.227.565.805.805 0 0 0 .227.565.783.783 0 0 0 .555.235h.08a.78.78 0 0 0 .557-.235.806.806 0 0 0 .23-.565Z"/>
    <path fill="#57D2D2" d="M37.656 48.392a.81.81 0 0 0 .23.566c.148.15.349.234.558.234h5.843a.78.78 0 0 0 .557-.234.806.806 0 0 0 0-1.131.781.781 0 0 0-.557-.234h-5.843a.781.781 0 0 0-.557.234.806.806 0 0 0-.23.565Z"/>
    <path fill="#DBE4ED" d="M56.68 48.425a.805.805 0 0 0 .23.563.782.782 0 0 0 .557.23h2.421a.772.772 0 0 0 .556-.23.794.794 0 0 0 .231-.563.806.806 0 0 0-.23-.566.78.78 0 0 0-.557-.234h-2.42a.781.781 0 0 0-.558.234.806.806 0 0 0-.23.566Zm-6.567 0a.8.8 0 0 0 .23.55c.143.146.338.23.542.233h2.42a.772.772 0 0 0 .557-.225.794.794 0 0 0-.551-1.358h-2.426a.776.776 0 0 0-.548.238.8.8 0 0 0-.224.562Z"/>
    <path fill="#7BC492" d="M28.422 48.37a.81.81 0 0 0 .23.566c.148.15.348.234.557.234h2.421a.78.78 0 0 0 .557-.234.805.805 0 0 0 0-1.131.78.78 0 0 0-.557-.234h-2.42a.781.781 0 0 0-.558.234.806.806 0 0 0-.23.565Z"/>
    <path fill="#57D2D2" d="M23.875 48.37c0 .209.08.409.223.558a.78.78 0 0 0 .543.242h2.42a.777.777 0 0 0 .561-.232.8.8 0 0 0 .233-.568.806.806 0 0 0-.231-.565.781.781 0 0 0-.557-.234h-2.426a.782.782 0 0 0-.543.242.806.806 0 0 0-.223.557Z"/>
    <path fill="#DBE4ED" d="M54.512 48.332a.81.81 0 0 0 .23.566.78.78 0 0 0 .557.234h.075a.773.773 0 0 0 .558-.233.795.795 0 0 0 .23-.567.804.804 0 0 0-.232-.563.78.78 0 0 0-.556-.23h-.075a.772.772 0 0 0-.556.23.794.794 0 0 0-.231.563Z"/>
    <path fill="#F62D71" d="M47.805 48.332a.81.81 0 0 0 .23.566c.148.15.348.234.557.234h.075a.781.781 0 0 0 .557-.234.806.806 0 0 0 0-1.13.78.78 0 0 0-.557-.23h-.075a.771.771 0 0 0-.556.23.797.797 0 0 0-.231.564Z"/>
    <path fill="#DBE4ED" d="M45.566 48.332c0 .212.083.416.231.566.148.15.348.234.557.234h.08a.78.78 0 0 0 .557-.234.806.806 0 0 0 0-1.13.78.78 0 0 0-.557-.23h-.08a.771.771 0 0 0-.557.23.794.794 0 0 0-.23.564Z"/>
    <path fill="#F62D71" d="M15.996 48.392a.81.81 0 0 0 .23.566.78.78 0 0 0 .557.234h5.844a.78.78 0 0 0 .557-.234.806.806 0 0 0 0-1.131.782.782 0 0 0-.557-.234h-5.844a.781.781 0 0 0-.556.234.806.806 0 0 0-.23.565Z"/>
    <path fill="#DBE4ED" d="M35.414 48.332a.81.81 0 0 0 .23.566.78.78 0 0 0 .557.234h.08a.781.781 0 0 0 .558-.234.806.806 0 0 0 0-1.13.78.78 0 0 0-.557-.23h-.08a.772.772 0 0 0-.557.23.794.794 0 0 0-.23.564Zm-2.234 0a.81.81 0 0 0 .23.566c.148.15.348.234.557.234h.075a.782.782 0 0 0 .55-.238.806.806 0 0 0-.004-1.125.78.78 0 0 0-.557-.23h-.075a.776.776 0 0 0-.55.234.8.8 0 0 0-.226.56Z"/>
    <path fill="#57D2D2" d="M39.018 50.992a.806.806 0 0 0-.23-.565.78.78 0 0 0-.557-.235h-5.843a.781.781 0 0 0-.554.236.806.806 0 0 0 .002 1.13.78.78 0 0 0 .557.233h5.838a.78.78 0 0 0 .557-.234.806.806 0 0 0 .23-.565Z"/>
    <path fill="#7BC492" d="M19.992 50.975a.806.806 0 0 0-.23-.565.781.781 0 0 0-.558-.234h-2.42a.78.78 0 0 0-.557.234.805.805 0 0 0 0 1.13.78.78 0 0 0 .556.235h2.421c.21 0 .41-.084.557-.234a.806.806 0 0 0 .23-.566Z"/>
    <path fill="#DBE4ED" d="M26.557 50.975a.805.805 0 0 0-.227-.565.783.783 0 0 0-.555-.234h-2.426a.773.773 0 0 0-.555.234.796.796 0 0 0-.228.565.804.804 0 0 0 .228.565.781.781 0 0 0 .555.235h2.426a.77.77 0 0 0 .555-.235.795.795 0 0 0 .227-.565Z"/>
    <path fill="#7BC492" d="M48.25 51.013a.806.806 0 0 0-.231-.565.781.781 0 0 0-.557-.234h-2.42a.782.782 0 0 0-.558.234.806.806 0 0 0 .256 1.304c.096.04.198.06.301.06h2.421a.78.78 0 0 0 .557-.233.806.806 0 0 0 .23-.566Z"/>
    <path fill="#57D2D2" d="M52.797 51.013a.806.806 0 0 0-.231-.565.781.781 0 0 0-.557-.234h-2.42a.781.781 0 0 0-.558.234.806.806 0 0 0 .256 1.304c.095.04.198.06.301.06h2.421a.777.777 0 0 0 .557-.233.8.8 0 0 0 .23-.566Z"/>
    <path fill="#DBE4ED" d="M22.161 51.051a.806.806 0 0 0-.23-.565.781.781 0 0 0-.557-.234h-.075a.781.781 0 0 0-.557.234.806.806 0 0 0 0 1.13c.148.15.348.235.557.235h.075a.78.78 0 0 0 .557-.234.806.806 0 0 0 .23-.566Z"/>
    <path fill="#F62D71" d="M28.864 51.051a.806.806 0 0 0-.23-.565.781.781 0 0 0-.557-.234h-.075a.781.781 0 0 0-.556.234.806.806 0 0 0 0 1.13c.147.15.347.235.556.235h.075a.78.78 0 0 0 .557-.234.806.806 0 0 0 .23-.566Z"/>
    <path fill="#DBE4ED" d="M31.105 51.051a.806.806 0 0 0-.23-.565.781.781 0 0 0-.557-.234h-.08a.781.781 0 0 0-.55.238.806.806 0 0 0 .004 1.127c.147.15.347.234.556.234h.08a.782.782 0 0 0 .55-.238.805.805 0 0 0 .227-.562Z"/>
    <path fill="#F62D71" d="M60.676 50.992a.806.806 0 0 0-.23-.565.78.78 0 0 0-.557-.235h-5.844a.781.781 0 0 0-.557.235.806.806 0 0 0 0 1.13c.148.15.348.234.557.234h5.844a.78.78 0 0 0 .556-.234.806.806 0 0 0 .231-.565Z"/>
    <path fill="#DBE4ED" d="M41.245 51.051a.806.806 0 0 0-.23-.565.781.781 0 0 0-.557-.234h-.08a.781.781 0 0 0-.558.234.806.806 0 0 0 0 1.13c.148.15.348.235.557.235h.08c.21 0 .41-.084.557-.234a.806.806 0 0 0 .23-.566Zm2.248 0a.806.806 0 0 0-.23-.565.782.782 0 0 0-.557-.234h-.075a.781.781 0 0 0-.557.234.806.806 0 0 0 0 1.13c.148.15.348.235.557.235h.075a.78.78 0 0 0 .557-.234.806.806 0 0 0 .23-.566Z"/>
    <path fill="#F62D71" d="M56.578 43.073a.806.806 0 0 0-.23-.565.782.782 0 0 0-.557-.235h-.086a.782.782 0 0 0-.556.235.806.806 0 0 0 0 1.128.78.78 0 0 0 .556.231h.08a.77.77 0 0 0 .56-.229.797.797 0 0 0 .233-.565Z"/>
    <path fill="#57D2D2" d="M58.814 43.073a.806.806 0 0 0-.23-.565.781.781 0 0 0-.558-.235h-.075a.782.782 0 0 0-.556.235.806.806 0 0 0 0 1.128.779.779 0 0 0 .556.231h.075a.772.772 0 0 0 .557-.23.794.794 0 0 0 .23-.564Zm-7.392 2.697c0 .213.083.416.23.566a.78.78 0 0 0 .557.234h5.844a.782.782 0 0 0 .557-.234.806.806 0 0 0 0-1.13.781.781 0 0 0-.557-.235h-5.87a.782.782 0 0 0-.54.244.806.806 0 0 0-.221.556Zm-22.664 0c0 .213.083.416.23.566.148.15.348.234.557.234h5.844a.78.78 0 0 0 .556-.234.806.806 0 0 0 0-1.13.78.78 0 0 0-.556-.235h-5.844a.781.781 0 0 0-.557.235.806.806 0 0 0-.23.565Z"/>
    <path fill="#DBE4ED" d="M20.625 45.77a.812.812 0 0 0 .236.572.787.787 0 0 0 .567.228h5.828a.781.781 0 0 0 .557-.234.806.806 0 0 0 0-1.131.781.781 0 0 0-.557-.234h-5.828a.776.776 0 0 0-.567.228.8.8 0 0 0-.236.571Zm26.227.022a.81.81 0 0 0 .23.566c.148.15.348.234.557.234h2.42c.21 0 .41-.084.558-.234a.806.806 0 0 0 0-1.131.781.781 0 0 0-.557-.234h-2.421a.781.781 0 0 0-.557.234.806.806 0 0 0-.23.565Z"/>
    <path fill="#57D2D2" d="M41.969 45.792a.81.81 0 0 0 .23.566c.148.15.348.234.557.234h2.421a.78.78 0 0 0 .557-.234.806.806 0 0 0 0-1.131.781.781 0 0 0-.557-.234h-2.42a.782.782 0 0 0-.558.234.806.806 0 0 0-.23.565Z"/>
    <path fill="#DBE4ED" d="M37.164 45.792a.81.81 0 0 0 .23.566c.148.15.349.234.558.234h2.42a.78.78 0 0 0 .557-.234.806.806 0 0 0 0-1.131.781.781 0 0 0-.556-.234h-2.421a.782.782 0 0 0-.557.234.806.806 0 0 0-.23.565Z"/>
    <path fill="#F62D71" d="M18.21 45.776a.804.804 0 0 0 .232.563.782.782 0 0 0 .556.231h.08a.776.776 0 0 0 .554-.232.8.8 0 0 0 .229-.562.805.805 0 0 0-.227-.565.78.78 0 0 0-.555-.234h-.08a.782.782 0 0 0-.557.234.806.806 0 0 0-.231.565Z"/>
    <path fill="#57D2D2" d="M15.996 45.776a.805.805 0 0 0 .231.563.78.78 0 0 0 .556.231h.08a.772.772 0 0 0 .575-.22.794.794 0 0 0 .24-.574.806.806 0 0 0-.23-.565.782.782 0 0 0-.558-.234h-.08a.778.778 0 0 0-.574.224.8.8 0 0 0-.24.575Z"/>
    <path fill="#7BC492" d="M24.642 29.563a.806.806 0 0 0-.23-.566.781.781 0 0 0-.557-.234h-.075a.782.782 0 0 0-.53.25.806.806 0 0 0 .016 1.115.78.78 0 0 0 .557.234h.075c.2-.01.39-.1.529-.249a.806.806 0 0 0 .215-.55Z"/>
    <path fill="#DBE4ED" d="M35.068 29.563a.806.806 0 0 0-.23-.566.781.781 0 0 0-.558-.234h-.075a.781.781 0 0 0-.556.234.806.806 0 0 0 0 1.131c.147.15.347.234.556.234h.075c.21 0 .41-.084.557-.234a.806.806 0 0 0 .23-.565Z"/>
    <path fill="#FF8933" d="M37.297 29.563a.806.806 0 0 0-.23-.566.781.781 0 0 0-.557-.234h-.086a.78.78 0 0 0-.557.234.806.806 0 0 0 0 1.131.78.78 0 0 0 .557.234h.075a.778.778 0 0 0 .564-.23.799.799 0 0 0 .234-.57Z"/>
    <path fill="#DBE4ED" d="M47.78 29.563a.806.806 0 0 0-.23-.566.78.78 0 0 0-.557-.234h-.08a.78.78 0 0 0-.557.234.806.806 0 0 0 0 1.131.78.78 0 0 0 .556.234h.08a.78.78 0 0 0 .557-.234.806.806 0 0 0 .231-.565Zm2.151 0a.806.806 0 0 0-.23-.566.781.781 0 0 0-.557-.234h-.075a.781.781 0 0 0-.557.234.806.806 0 0 0 0 1.131.78.78 0 0 0 .557.234h.075a.78.78 0 0 0 .556-.234.806.806 0 0 0 .231-.565Zm11.785 2.915a.806.806 0 0 0-.23-.566.781.781 0 0 0-.557-.234h-.075a.781.781 0 0 0-.557.234.806.806 0 0 0 0 1.131c.148.15.348.234.557.234h.075a.778.778 0 0 0 .556-.234.806.806 0 0 0 .231-.565Z"/>
    <path fill="#FFCD78" fill-rule="evenodd" d="M79.273 46.401a1.209 1.209 0 0 0-.225-.348l-5.48-5.71a1.007 1.007 0 0 0-.725-.314.994.994 0 0 0-.726.313 1.097 1.097 0 0 0 0 1.513l3.75 3.883h-13.3c-.245.047-.466.18-.625.375a1.098 1.098 0 0 0 0 1.387c.159.196.38.328.625.375H75.84l-3.75 3.884a1.097 1.097 0 0 0 0 1.512 1.014 1.014 0 0 0 .729.315.977.977 0 0 0 .723-.315l5.48-5.706c.095-.103.171-.222.224-.353.1-.25.1-.529 0-.778" clip-rule="evenodd"/>
    <path fill="#FFBC4B" fill-rule="evenodd" d="M62.513 46.652h14.194l-.879-.914H62.566a1.026 1.026 0 0 0-.735.326 1.057 1.057 0 0 0-.288.762c0 .136.026.27.075.397a1.005 1.005 0 0 1 .895-.571Zm9.547-5.396a1.007 1.007 0 0 1 .726-.313.994.994 0 0 1 .725.313l5.475 5.711a.97.97 0 0 1 .224.348.696.696 0 0 0 .06-.108 1.048 1.048 0 0 0-.226-1.126l-5.479-5.711a1.008 1.008 0 0 0-.726-.314.994.994 0 0 0-.725.314 1.093 1.093 0 0 0-.226 1.158c.041-.1.1-.192.172-.272Zm4.595 6.624h-.82l-3.749 3.884a1.094 1.094 0 0 0-.225 1.159.918.918 0 0 1 .172-.245l4.622-4.797Z" clip-rule="evenodd"/>
    <path fill="#57D2D2" fill-rule="evenodd" d="M61.614 33.656c.055.129.131.246.226.348l5.479 5.711a1.007 1.007 0 0 0 .726.314.994.994 0 0 0 .725-.314 1.097 1.097 0 0 0 0-1.512l-3.749-3.883h13.3c.245-.047.466-.18.625-.375a1.098 1.098 0 0 0 0-1.388 1.068 1.068 0 0 0-.626-.375H65.048l3.75-3.883a1.097 1.097 0 0 0 0-1.512 1.014 1.014 0 0 0-.73-.316.98.98 0 0 0-.722.316l-5.48 5.705a1.16 1.16 0 0 0-.225.354c-.1.25-.1.528 0 .778" clip-rule="evenodd"/>
    <path fill="#0FBFBF" fill-rule="evenodd" d="M78.374 33.406H64.18l.878.914H78.32a1.026 1.026 0 0 0 .736-.327 1.057 1.057 0 0 0 .287-.76c0-.137-.026-.272-.075-.398a1.014 1.014 0 0 1-.894.571Zm-9.547 5.396a1.007 1.007 0 0 1-.726.313.994.994 0 0 1-.725-.313l-5.474-5.711a.97.97 0 0 1-.225-.348.7.7 0 0 0-.06.109 1.048 1.048 0 0 0 .226 1.126l5.48 5.71a1.008 1.008 0 0 0 .725.314.994.994 0 0 0 .726-.314 1.094 1.094 0 0 0 .225-1.158.92.92 0 0 1-.172.272Zm-4.593-6.625h.82l3.75-3.884a1.093 1.093 0 0 0 .224-1.158.922.922 0 0 1-.171.245l-4.623 4.797Z" clip-rule="evenodd"/>
  </g>
</svg>
