<svg xmlns="http://www.w3.org/2000/svg" width="70" height="70" fill="none" viewBox="0 0 70 70">
  <path fill="#000" fill-rule="evenodd" d="M51.082 33.052h1.555c.259-.519.259-1.555 0-2.721-.26-1.685-.778-2.592-1.685-2.592-1.036.26-1.036 1.425-.648 3.11.13.907.519 1.684.907 2.203h-.13Zm-8.163 1.296c.648.388 1.036.518 1.295.388l-.13-.648a3.864 3.864 0 0 0-1.813-1.295 4.923 4.923 0 0 0-4.795.518c-.388.26-.907.777-.777 1.037l.26.13c.388 0 1.684-.52 3.238-.649 1.037 0 1.944.26 2.592.519h.13Zm-1.426.907c-.907 0-1.296.388-1.684.648l-.518.647v.26h.259l.648-.13c1.295-.518 2.073-.389 2.85-.389h.778v-.259c-.13-.389-1.167-1.037-2.333-.777Zm6.868 2.85c.648.26 1.296.26 1.555-.259.13-.389-.13-1.036-.778-1.296-.518-.388-1.295-.259-1.425.26-.26.388 0 1.036.648 1.295Zm3.887-3.498c-.389 0-.777.648-.907 1.296 0 .647.389 1.295.907 1.295s.907-.648.907-1.295c0-.648-.389-1.296-.777-1.296h-.13Zm-33.82 12.31c-.258 0-.388.129-.518 0a1.038 1.038 0 0 1-.907-.26v-1.555l.26-.259c.388-.907 1.036-2.332.259-3.887a3.369 3.369 0 0 0-2.592-1.814c-1.036-.13-2.203.259-2.85 1.036-1.167 1.296-1.296 2.851-1.037 3.499l.26.26c.129 0 .517-.13.647-.649 0-.388.26-.777.518-1.295.26-.39.648-.648 1.296-.778.518 0 1.037 0 1.425.26.778.517 1.037 1.554.778 2.461-.13.389-.519 1.296-.389 2.073 0 1.426 1.037 2.074 1.814 2.074.778 0 1.296-.39 1.555-.648v-.389c-.13-.13-.389 0-.518 0v-.13Zm46.648 2.332c-.648 2.98-1.944 5.572-4.146 7.774-1.296 1.555-2.98 2.851-4.795 3.758l-3.11 1.296c-8.292 2.72-16.844-.26-19.566-6.738a13.346 13.346 0 0 1 2.333-13.865l.389-.777-.26-.648c-1.166-1.685-4.923-4.276-4.146-9.589.518-3.628 3.887-6.349 6.868-6.22h.777l3.499.39c1.814 0 3.498-.13 5.442-1.815.648-.518 1.166-1.036 2.073-1.166h.777c.39 0 .907 0 1.296.389 1.555 1.036 1.814 3.498 1.814 5.313l.26 4.276c0 1.684.518 1.943 1.295 2.202l1.685.519a9.07 9.07 0 0 1 4.146 1.943c.389.519.648.907.648 1.426.26 1.814-1.296 3.887-5.572 5.96a28.507 28.507 0 0 1-14.253 2.332l-1.296-.259c-3.24-.389-4.924 3.758-3.11 6.479 1.296 1.814 4.535 2.98 7.775 2.98 7.645 0 13.346-3.24 15.549-6.09l.13-.259c.13-.13 0-.26 0 0-1.815 1.037-9.719 5.96-18.141 4.406 0 0-.907 0-1.814-.519-.778-.259-2.332-.907-2.592-2.591 6.868 2.073 11.144.13 11.144.13v-.13l-.13-.26s-5.572.908-10.755-1.036c.519-1.944 2.074-1.296 4.276-1.037 4.147.26 7.905-.388 10.626-1.166 2.332-.648 5.442-2.073 7.904-3.887.777 1.684 1.166 3.758 1.166 3.758s.648-.13 1.166.13c.389.388.778 1.036.519 2.59h.13ZM26.462 19.705c2.592-3.11 5.831-5.7 8.682-7.126h.13l-.778 2.073c0 .13 0 .26.13.13 1.814-1.296 4.924-2.592 7.645-2.592 0 0 .13 0 0 .13a6.483 6.483 0 0 0-1.166 1.295h.13c1.943 0 4.664.778 6.478 1.815 0 0 0 .259-.26.259a25.783 25.783 0 0 0-20.731 4.146c-.26 0-.39 0-.26-.13ZM12.986 33.96a9.07 9.07 0 0 0-5.7 3.758 15.55 15.55 0 0 1-2.463-2.333c-1.943-3.887 2.203-11.402 5.183-15.678C17.392 9.338 28.795 1.306 34.237 2.73c.777.26 3.628 3.499 3.628 3.499s-5.183 2.98-10.107 7.126a46.648 46.648 0 0 0-14.642 20.732l-.13-.13Zm3.888 17.752h-1.037c-3.498 0-7.386-3.24-7.774-6.997-.39-4.147 1.684-7.386 5.571-8.164a6.483 6.483 0 0 1 1.555-.13c2.074 0 5.183 1.685 5.96 6.48.649 3.887-.388 8.163-4.275 8.81Zm47.943-7.386-.389-1.685-.648-1.554a4.924 4.924 0 0 0-.518-6.738 11.662 11.662 0 0 0-5.053-2.592l-1.296-.26v-4.405c0-.907-.13-2.332-.648-3.887a10.366 10.366 0 0 0-2.592-4.665c3.24-3.369 5.183-7.126 5.183-10.366 0-5.96-7.515-7.774-16.715-3.887l-1.944.648-3.369-3.499C26.334-7.635-6.45 28.905 4.047 37.717L6.25 39.79a11.403 11.403 0 0 0-.519 5.183A10.366 10.366 0 0 0 9.23 51.58a10.755 10.755 0 0 0 6.867 2.85 26.562 26.562 0 0 0 24.36 15.55c11.662.389 21.64-5.183 25.657-15.16.259-.648 1.425-3.888 1.425-6.48 0-2.85-1.555-4.016-2.591-4.016h-.13Z" clip-rule="evenodd"/>
</svg>
