<svg xmlns="http://www.w3.org/2000/svg" width="80" height="81" fill="none" viewBox="0 0 80 81">
  <mask id="a" width="80" height="81" x="0" y="0" maskUnits="userSpaceOnUse" style="mask-type:luminance">
    <path fill="#fff" d="M80 .082H0v80h80v-80Z"/>
  </mask>
  <g mask="url(#a)">
    <path fill="#FF7A59" d="M66.237 25.239c-1 11.54-3.747 22.515-10.894 32.085-3.584 4.813-8.293 8.734-13.74 11.444a3.211 3.211 0 0 1-3.148 0C30.308 64.686 24.49 58.453 20.45 50.57a62.05 62.05 0 0 1-6.017-19.54c-.297-2.004-.454-4.03-.658-6.052a2.343 2.343 0 0 1 .316-1.558 2.46 2.46 0 0 1 1.25-1.027l23.277-11.292a2.945 2.945 0 0 1 2.788 0c7.7 3.741 15.394 7.468 23.08 11.179 1.303.632 1.967 1.513 1.751 2.958Z"/>
    <path fill="#3E5974" d="M75.996 17.674 40.043.454 3.997 17.674s-3.136 48.564 36 62.012c39.147-13.448 35.999-62.012 35.999-62.012Zm-9.777 7.565c-1.001 11.528-3.748 22.515-10.894 32.085-3.584 4.811-8.29 8.733-13.734 11.443a3.211 3.211 0 0 1-3.148 0c-8.148-4.081-13.967-10.314-18.011-18.196a62.052 62.052 0 0 1-6.018-19.54c-.297-2.004-.454-4.03-.657-6.052-.08-.54.032-1.089.316-1.558.284-.47.725-.832 1.249-1.028L38.6 11.102a2.944 2.944 0 0 1 2.787 0A7178.592 7178.592 0 0 0 64.444 22.28c1.315.633 1.99 1.514 1.775 2.959Z"/>
    <path fill="#2E475D" d="M75.998 17.674 40.044.454v10.292c.484.014.957.136 1.385.356A7188.878 7188.878 0 0 0 64.487 22.28c1.303.633 1.967 1.514 1.745 2.959-1 11.528-3.747 22.515-10.894 32.085-3.583 4.811-8.29 8.733-13.733 11.443-.481.257-1.017.4-1.566.418v10.501c39.107-13.465 35.959-62.012 35.959-62.012Z"/>
    <path fill="#FF5C35" d="M64.486 22.28A5392.928 5392.928 0 0 1 41.43 11.102a3.225 3.225 0 0 0-1.403-.356v58.44a3.455 3.455 0 0 0 1.577-.419c5.447-2.709 10.155-6.63 13.74-11.444 7.146-9.597 9.893-20.556 10.894-32.084.215-1.446-.448-2.326-1.752-2.959Z"/>
    <path fill="#fff" d="M46.723 34.458v-2.98c.402-.182.744-.469.986-.83.241-.36.374-.779.382-1.209v-.067a2.265 2.265 0 0 0-.706-1.598 2.406 2.406 0 0 0-1.657-.66h-.07a2.406 2.406 0 0 0-1.656.66 2.265 2.265 0 0 0-.706 1.598v.067c.002.434.132.859.373 1.224.24.366.583.658.988.843v2.98a6.749 6.749 0 0 0-3.177 1.356l-8.432-6.403c.068-.203.11-.413.122-.626a2.574 2.574 0 0 0-.55-1.603 2.711 2.711 0 0 0-1.442-.947 2.785 2.785 0 0 0-1.739.103 2.683 2.683 0 0 0-1.313 1.108 2.56 2.56 0 0 0-.346 1.656c.076.574.345 1.107.765 1.517.421.41.97.674 1.56.75a2.776 2.776 0 0 0 1.709-.326l8.264 6.233a6.364 6.364 0 0 0-1.117 3.685 6.373 6.373 0 0 0 1.221 3.654l-2.52 2.45a2.272 2.272 0 0 0-1.938.288 2.165 2.165 0 0 0-.827 1.066c-.152.43-.16.898-.023 1.334.138.435.414.818.79 1.091a2.27 2.27 0 0 0 2.615.04c.384-.262.673-.636.825-1.068.151-.431.158-.898.02-1.334l2.496-2.421a6.79 6.79 0 0 0 4.073 1.343 6.845 6.845 0 0 0 4.612-1.716 6.454 6.454 0 0 0 2.161-4.31 6.394 6.394 0 0 0-1.456-4.579 6.777 6.777 0 0 0-4.287-2.38m-1.03 9.801c-.682 0-1.35-.196-1.917-.564a3.372 3.372 0 0 1-1.271-1.503 3.255 3.255 0 0 1-.196-1.934c.133-.65.462-1.246.944-1.714a3.484 3.484 0 0 1 1.767-.916 3.55 3.55 0 0 1 1.994.19 3.43 3.43 0 0 1 1.549 1.233 3.277 3.277 0 0 1-.428 4.23c-.32.31-.701.557-1.12.725a3.536 3.536 0 0 1-1.322.253Z"/>
  </g>
</svg>
