<svg xmlns="http://www.w3.org/2000/svg" width="70" height="70" fill="none" viewBox="0 0 70 70">
  <g clip-path="url(#a)">
    <path fill="#95BF47" d="M58.102 13.497c-.04-.373-.372-.538-.62-.58-.249-.041-5.216-.083-5.216-.083s-4.181-4.056-4.595-4.47c-.414-.414-1.2-.29-1.532-.207 0 0-.786.248-2.11.662a13.781 13.781 0 0 0-.994-2.442c-1.49-2.856-3.643-4.347-6.292-4.347-.166 0-.373 0-.538.042-.083-.083-.166-.166-.248-.29C34.797.54 33.349-.039 31.61.002c-3.394.083-6.747 2.525-9.52 6.913-1.946 3.063-3.395 6.913-3.809 9.893-3.891 1.2-6.623 2.029-6.664 2.07-1.946.62-2.029.662-2.277 2.525C9.133 22.769 4 62.549 4 62.549L47.092 70l18.668-4.636s-7.616-51.536-7.658-51.867ZM41.877 9.48c-.994.29-2.111.663-3.353 1.035-.042-1.697-.248-4.098-1.035-6.168 2.608.497 3.85 3.395 4.388 5.133Zm-5.588 1.739c-2.277.704-4.72 1.449-7.203 2.235.704-2.649 2.028-5.298 3.643-7.037.62-.662 1.448-1.366 2.442-1.78.952 1.946 1.118 4.72 1.118 6.582Zm-4.636-8.941c.786 0 1.448.165 2.028.538-.91.455-1.822 1.159-2.65 2.07-2.152 2.318-3.808 5.878-4.47 9.355-2.07.62-4.057 1.242-5.92 1.821C21.883 10.6 26.436 2.444 31.651 2.28Z"/>
    <path fill="#5E8E3E" d="M57.484 12.917c-.249-.041-5.216-.083-5.216-.083s-4.18-4.056-4.595-4.47a.817.817 0 0 0-.58-.249V70l18.67-4.636s-7.617-51.495-7.658-51.867a.739.739 0 0 0-.621-.58Z"/>
    <path fill="#fff" d="m36.745 22.52-2.152 8.114s-2.401-1.118-5.299-.91c-4.222.248-4.263 2.897-4.222 3.6.249 3.643 9.77 4.43 10.307 12.916.414 6.706-3.56 11.259-9.272 11.631-6.871.414-10.638-3.6-10.638-3.6l1.449-6.169s3.808 2.857 6.83 2.691c1.987-.124 2.69-1.739 2.607-2.898-.29-4.719-8.071-4.47-8.568-12.21-.414-6.541 3.891-13.164 13.37-13.785 3.726-.331 5.588.62 5.588.62Z"/>
  </g>
  <defs>
    <clipPath id="a">
      <path fill="#fff" d="M0 0h70v70H0z"/>
    </clipPath>
  </defs>
</svg>
