<svg xmlns="http://www.w3.org/2000/svg" width="70" height="70" fill="none" viewBox="0 0 70 70">
  <g clip-path="url(#a)">
    <mask id="b" width="70" height="70" x="0" y="0" maskUnits="userSpaceOnUse" style="mask-type:luminance">
      <path fill="#fff" d="M70 0H0v70h70V0Z"/>
    </mask>
    <g mask="url(#b)">
      <path fill="#E01E5A" d="M14.707 44.234c0 4.048-3.306 7.354-7.354 7.354C3.306 51.588 0 48.282 0 44.234c0-4.047 3.306-7.353 7.353-7.353h7.354v7.353Zm3.703 0c0-4.047 3.306-7.353 7.354-7.353 4.047 0 7.353 3.306 7.353 7.353v18.413c0 4.047-3.306 7.353-7.353 7.353-4.048 0-7.354-3.306-7.354-7.353V44.234Z"/>
      <path fill="#36C5F0" d="M25.764 14.707c-4.048 0-7.354-3.306-7.354-7.354C18.41 3.306 21.716 0 25.764 0c4.047 0 7.353 3.306 7.353 7.353v7.354h-7.353Zm.001 3.705c4.048 0 7.354 3.306 7.354 7.354 0 4.047-3.306 7.353-7.354 7.353H7.354C3.306 33.119 0 29.813 0 25.765c0-4.047 3.306-7.353 7.353-7.353h18.413Z"/>
      <path fill="#2EB67D" d="M55.293 25.765c0-4.047 3.306-7.353 7.354-7.353 4.047 0 7.353 3.306 7.353 7.354 0 4.047-3.306 7.353-7.353 7.353h-7.354v-7.354Zm-3.703 0c0 4.048-3.307 7.354-7.354 7.354-4.047 0-7.353-3.306-7.353-7.354V7.354C36.883 3.306 40.189 0 44.236 0s7.354 3.306 7.354 7.353v18.413Z"/>
      <path fill="#ECB22E" d="M44.236 55.293c4.047 0 7.354 3.306 7.354 7.354 0 4.047-3.307 7.353-7.354 7.353-4.047 0-7.353-3.306-7.353-7.353v-7.354h7.353Zm0-3.705c-4.047 0-7.353-3.306-7.353-7.354 0-4.047 3.306-7.353 7.353-7.353h18.412c4.047 0 7.354 3.306 7.354 7.353 0 4.048-3.306 7.354-7.354 7.354H44.236Z"/>
    </g>
  </g>
  <defs>
    <clipPath id="a">
      <path fill="#fff" d="M0 0h70v70H0z"/>
    </clipPath>
  </defs>
</svg>
