<svg xmlns="http://www.w3.org/2000/svg" width="108" height="61" fill="none" viewBox="0 0 108 61">
  <path fill="#fff" fill-rule="evenodd" d="M19.814 7.477c-.17-1.459-.521-1.882-.768-2.077a4.09 4.09 0 0 0-2.072-.482c-1.543-.105-4.148-.17-6.974-.17-2.827 0-5.432.059-6.975.17A4.09 4.09 0 0 0 .954 5.4c-.248.195-.6.65-.769 2.077a54.704 54.704 0 0 0 0 9c.17 1.459.521 1.882.769 2.078.635.34 1.35.507 2.07.482 1.544.104 4.15.169 6.976.169 2.826 0 5.438-.065 6.974-.17a4.07 4.07 0 0 0 2.072-.481c.247-.196.599-.652.768-2.078a54.509 54.509 0 0 0 0-9ZM7.577 15.123V8.832l6.037 3.145-6.037 3.146ZM58.44 9h-3.003V7.044c.215-1.87 3.303-1.512 3.303-1.512v-3.23c-.104 0-6.143-1.46-7.336 3.134a23.314 23.314 0 0 0-.189 3.563h-2.547v3.518h2.736v9.564h3.987v-9.563h3.05l.345-3.519h-.345Zm34.11 13.03h-4.096V8.728h4.116v13.3h-.02ZM90.474 6.988a2.454 2.454 0 1 1 2.435-2.454 2.447 2.447 0 0 1-2.435 2.454ZM108 22.029h-4.116v-6.984c0-1.915-.727-2.986-2.239-2.986-1.649 0-2.506 1.11-2.506 2.986v6.984h-3.953V8.73h3.947v1.791a4.635 4.635 0 0 1 4.011-2.18c2.818 0 4.837 1.72 4.837 5.283L108 22.03Z" clip-rule="evenodd"/>
  <path fill="#fff" d="M17.136 43.92a4.214 4.214 0 0 1-4.215-4.172H10.2v7.436l-.003 4.07a2.467 2.467 0 0 1-3.732 2.113 2.458 2.458 0 0 1-1.203-2.076 2.467 2.467 0 0 1 3.243-2.377v-2.757a5.215 5.215 0 0 0-.785-.059 5.22 5.22 0 0 0-3.922 1.754 5.118 5.118 0 0 0-1.287 3.08 5.1 5.1 0 0 0 1.519 3.97 5.215 5.215 0 0 0 3.69 1.512 5.247 5.247 0 0 0 3.69-1.511 5.092 5.092 0 0 0 1.528-3.625l-.012-6.083c.466.362.977.659 1.528.89.854.362 1.76.541 2.69.541v-2.709c.003.004-.007.004-.007.004Z"/>
  <path fill="#fff" fill-rule="evenodd" d="M53.756 38.14c-2.48 0-2.838 0-3.897.059a7.324 7.324 0 0 0-2.423.46 5.099 5.099 0 0 0-2.916 2.917A7.322 7.322 0 0 0 44.058 44c-.045 1.065-.058 1.403-.058 4.112 0 2.708 0 3.046.059 4.111.015.828.171 1.648.46 2.423a5.1 5.1 0 0 0 2.917 2.917c.776.29 1.595.445 2.423.461 1.065.046 1.403.058 4.112.058 2.708 0 3.046 0 4.112-.058a7.322 7.322 0 0 0 2.422-.461 5.1 5.1 0 0 0 2.917-2.917 7.326 7.326 0 0 0 .507-2.416c.045-1.033.058-1.384.058-3.897v-.494c0-2.481 0-2.839-.059-3.897a7.32 7.32 0 0 0-.46-2.423A5.099 5.099 0 0 0 60.55 38.6a7.319 7.319 0 0 0-2.423-.461c-1.033-.046-1.384-.059-3.897-.059l-.475.059Zm6.769 4.65a1.195 1.195 0 1 1-2.39.001 1.195 1.195 0 0 1 2.39 0Zm-6.496 8.653a3.326 3.326 0 1 1 0-6.651 3.326 3.326 0 0 1 0 6.651Zm0-8.444a5.125 5.125 0 1 1 0 10.25 5.125 5.125 0 0 1 0-10.25Zm0-3.053c2.663 0 2.982 0 4.034.058a5.524 5.524 0 0 1 1.851.345 3.307 3.307 0 0 1 1.897 1.896c.22.593.336 1.22.344 1.852.046 1.052.059 1.37.059 4.033 0 2.663 0 2.982-.059 4.034a5.521 5.521 0 0 1-.344 1.851 3.306 3.306 0 0 1-1.897 1.89 5.516 5.516 0 0 1-1.851.345c-1.052.045-1.364.058-4.034.058s-2.981 0-4.034-.058a5.516 5.516 0 0 1-1.85-.344 3.306 3.306 0 0 1-1.891-1.89 5.514 5.514 0 0 1-.344-1.852c-.046-1.052-.059-1.37-.059-4.034 0-2.663 0-2.981.059-4.034a5.514 5.514 0 0 1 .344-1.85 3.306 3.306 0 0 1 1.89-1.898 5.524 5.524 0 0 1 1.852-.344c1.026-.058 1.344-.065 4.007-.065l.026.007Zm51.951 4.184c.255 5.778-4.052 12.214-11.687 12.214A11.616 11.616 0 0 1 88 54.5a8.254 8.254 0 0 0 6.078-1.7 4.11 4.11 0 0 1-3.837-2.853 4.098 4.098 0 0 0 1.857-.072 4.11 4.11 0 0 1-3.284-4.085c.571.318 1.21.495 1.864.515a4.11 4.11 0 0 1-1.303-5.479 11.655 11.655 0 0 0 8.469 4.293 4.11 4.11 0 0 1 6.996-3.746 8.236 8.236 0 0 0 2.606-.996 4.123 4.123 0 0 1-1.804 2.273A8.202 8.202 0 0 0 108 42a8.293 8.293 0 0 1-2.02 2.13Z" clip-rule="evenodd"/>
</svg>
