<svg xmlns="http://www.w3.org/2000/svg" width="80" height="81" fill="none" viewBox="0 0 80 81">
  <path fill="#FF5C35" d="M39.053 33.166a8.737 8.737 0 0 0-4.909 1.509 8.941 8.941 0 0 0-3.255 4.024 9.098 9.098 0 0 0-.505 5.182 9.013 9.013 0 0 0 2.416 4.594 8.792 8.792 0 0 0 4.522 2.456 8.71 8.71 0 0 0 5.104-.51 8.864 8.864 0 0 0 3.965-3.303 9.068 9.068 0 0 0 1.489-4.983 9.04 9.04 0 0 0-2.586-6.34 8.765 8.765 0 0 0-6.241-2.629Z"/>
  <path fill="#FF7A59" d="M39.052 7.979a33.274 33.274 0 0 0-18.689 5.753A34.048 34.048 0 0 0 7.973 29.06a34.646 34.646 0 0 0-1.917 19.735 34.323 34.323 0 0 0 9.204 17.49 33.482 33.482 0 0 0 17.223 9.349 33.162 33.162 0 0 0 19.435-1.943 33.754 33.754 0 0 0 15.097-12.58 34.532 34.532 0 0 0 5.669-18.976c0-9.058-3.543-17.745-9.85-24.15C56.527 11.579 47.972 7.98 39.052 7.979Zm0 57.455A22.704 22.704 0 0 1 26.3 61.51a23.233 23.233 0 0 1-8.455-10.459 23.64 23.64 0 0 1-1.308-13.466 23.419 23.419 0 0 1 6.282-11.934c3.21-3.26 7.3-5.48 11.753-6.379A22.626 22.626 0 0 1 47.834 20.6a23.03 23.03 0 0 1 10.3 8.586 23.563 23.563 0 0 1 3.865 12.95c0 6.179-2.417 12.105-6.72 16.475-4.304 4.37-10.14 6.825-16.226 6.825Z"/>
  <path fill="#FF5C35" d="M39.86 8v10.851c5.944.206 11.578 2.75 15.712 7.093 4.134 4.344 6.444 10.148 6.444 16.188 0 6.04-2.31 11.844-6.444 16.188-4.134 4.343-9.768 6.887-15.713 7.093v10.878c8.769-.225 17.104-3.92 23.227-10.297 6.124-6.377 9.55-14.931 9.55-23.837 0-8.907-3.426-17.461-9.55-23.838C56.963 11.942 48.628 8.247 39.86 8.022V8Z"/>
  <path fill="#FF5C35" d="M38.063 60.839h-.332c-.214 0-.428 0-.637-.05l-.418-.053-.535-.071-.44-.082-.508-.13-.472-.11-.343-.08h-.112l-.493-.142-.209-.06-.203-.06-.536-.168-.38-.13-.536-.208h-.043l-.262-.13-.536-.24-.07-.032-.24-.114a7.13 7.13 0 0 1-.536-.283l-.268-.142a6.136 6.136 0 0 1-.535-.32l-.172-.098-.07-.044a12.55 12.55 0 0 1-.567-.364l-.204-.13a15.526 15.526 0 0 1-.573-.414l-.177-.125a18.408 18.408 0 0 1-.578-.457l-.14-.109a26.107 26.107 0 0 1-.583-.5l-.086-.076h-.027a52.43 52.43 0 0 1-.578-.544l-.086-.082a29.16 29.16 0 0 1-.568-.593l-.064-.07c-.187-.212-.375-.425-.536-.642l-.042-.054a12.53 12.53 0 0 1-.536-.686c-.182-.24-.359-.484-.536-.734a19.692 19.692 0 0 1-3.476-10.834h6.096a13.47 13.47 0 0 0 1.687 6.19v.032c.096.174.193.342.3.506a.122.122 0 0 0 0 .043c.209.343.439.67.68.99l.043.06c.112.147.23.293.348.435l.059.065c.112.13.225.267.343.392l.07.07c.122.131.24.256.363.376l.07.07c.275.265.559.52.852.767l.128.104c.306.244.622.478.948.696l.086.054c.114.083.232.159.354.229l.187.108c.3.174.605.338.916.49l.23.103c.145.071.295.136.445.196l.15.065.337.13.14.05.46.157.214.06c.134.038.268.082.407.115l.317.076.31.07.236.044c.348.065.702.12 1.071.152.14 0 .279.011.418.033h2.105l.402-.044c.123 0 .251 0 .375-.049l.294-.048.343-.06a15.35 15.35 0 0 0 1.14-.294h.108l.321-.114.166-.055c.193-.07.38-.141.568-.223l.134-.049.337-.152.236-.103.348-.18.214-.108c.306-.17.606-.354.9-.544l.172-.11.358-.255.15-.109.36-.277.106-.087a8.56 8.56 0 0 0 .38-.326l.097-.087.397-.37.07-.07c.122-.12.24-.24.353-.365l.048-.05.38-.429a.725.725 0 0 1 .06-.076 12.5 12.5 0 0 0 1.07-1.474c.108-.174.215-.348.311-.544.102-.185.204-.37.295-.544.182-.375.353-.761.503-1.153a13.682 13.682 0 0 0 .878-4.47h6.123a19.545 19.545 0 0 1-1.698 7.663v.043a19.04 19.04 0 0 1-1.19 2.247c-.16.26-.326.543-.498.772-.166.245-.342.49-.535.729-.177.234-.359.462-.536.69-.182.218-.364.43-.535.642a.618.618 0 0 1-.06.06c-.187.201-.374.397-.567.593l-.086.081c-.187.185-.38.37-.573.544l-.112.104-.579.5-.144.114c-.188.153-.38.305-.579.452l-.043.032-.134.098c-.187.136-.375.272-.567.403l-.215.141c-.182.12-.37.245-.535.36l-.16.097-.081.044-.536.32-.262.136c-.177.093-.36.19-.536.278-.091.049-.187.087-.284.13l-.536.24-.305.125h-.043l-.535.206-.118.038-.268.093c-.166.06-.332.12-.503.169h-.08l-.338.092-.487.141-.392.093h-.064l-.471.109-.504.092-.439.076-.284.038-.267.033-.408.054c-.214 0-.428.033-.642.05h-.327c-.327 0-.659.026-.986.026h-.198c-.353.126-.621.12-.884.104Z"/>
  <path fill="#FF7A59" d="M25.911 41.76a13.44 13.44 0 0 1 3.94-9.26 13.036 13.036 0 0 1 9.196-3.813c3.439 0 6.74 1.37 9.197 3.813a13.44 13.44 0 0 1 3.94 9.26h6.122a19.712 19.712 0 0 0-5.97-13.209 19.127 19.127 0 0 0-13.289-5.393 19.13 19.13 0 0 0-13.29 5.393A19.712 19.712 0 0 0 19.79 41.76h6.122Z"/>
  <path fill="#DBE4ED" d="M66.915 16.773 40.707 42.961a1.75 1.75 0 0 1-1.237.516 1.749 1.749 0 0 1-1.62-1.096 1.808 1.808 0 0 1 .383-1.949l26.01-26.41a1.76 1.76 0 0 1 1.288-.522 1.74 1.74 0 0 1 1.26.586l.204.229a1.806 1.806 0 0 1-.08 2.458Z"/>
  <path fill="#FF8933" d="M70.813 9.958 69.7 1.61l-8.516 9.665-.445 9.045L70.813 9.958Z"/>
  <path fill="#FFBC4B" d="m70.817 9.991 8.228 1.077-9.46 8.713-8.901.517L70.817 9.99Z"/>
</svg>
