<svg xmlns="http://www.w3.org/2000/svg" width="80" height="81" fill="none" viewBox="0 0 80 81">
  <mask id="a" width="80" height="81" x="0" y="0" maskUnits="userSpaceOnUse" style="mask-type:luminance">
    <path fill="#fff" d="M80 .082H0v80h80v-80Z"/>
  </mask>
  <g mask="url(#a)">
    <path fill="#F6F9FC" d="M40.081 66.936a30.201 30.201 0 0 1-16.962-5.225 30.905 30.905 0 0 1-11.244-13.913 31.446 31.446 0 0 1-1.738-17.912 31.154 31.154 0 0 1 8.356-15.873A30.39 30.39 0 0 1 34.125 5.53a30.1 30.1 0 0 1 17.64 1.764 30.636 30.636 0 0 1 13.701 11.418 31.342 31.342 0 0 1 5.145 17.224c-.007 8.22-3.226 16.1-8.95 21.913-5.724 5.812-13.485 9.08-21.58 9.088Zm0-61.078a29.306 29.306 0 0 0-16.459 5.07 29.988 29.988 0 0 0-10.91 13.5 30.513 30.513 0 0 0-1.687 17.38 30.229 30.229 0 0 0 8.108 15.403 29.489 29.489 0 0 0 15.168 8.233 29.207 29.207 0 0 0 17.117-1.712 29.728 29.728 0 0 0 13.295-11.08 30.413 30.413 0 0 0 4.993-16.712c-.008-7.976-3.132-15.622-8.686-21.262-5.554-5.64-13.085-8.812-20.939-8.82Z"/>
    <path fill="#99AFC4" d="M61.6 55.786a9.998 9.998 0 0 1-5.045-1.36v5.657H66.78v-5.744a9.96 9.96 0 0 1-5.18 1.447Z"/>
    <path fill="#516F90" d="M61.6 55.786a9.998 9.998 0 0 1-5.045-1.36v.289c2.319 2.126 7.038 1.925 7.038 1.925a13.74 13.74 0 0 0 3.213-.234V54.34a9.96 9.96 0 0 1-5.206 1.447Z"/>
    <path fill="#99AFC4" d="M61.596 25.83a9.994 9.994 0 0 0-3.879.779 10.119 10.119 0 0 0-3.29 2.229 10.297 10.297 0 0 0-2.198 3.338 10.424 10.424 0 0 0-.772 3.938v9.393c0 1.351.262 2.69.772 3.937a10.293 10.293 0 0 0 2.199 3.337c.942.955 2.06 1.712 3.29 2.227a9.99 9.99 0 0 0 3.878.778c2.685 0 5.26-1.083 7.158-3.01a10.36 10.36 0 0 0 2.965-7.27v-9.392c0-2.727-1.066-5.342-2.964-7.27a10.051 10.051 0 0 0-7.159-3.015Z"/>
    <path fill="#3E5974" d="M67.066 57.298a8.057 8.057 0 0 1-5.49 2.169 8.057 8.057 0 0 1-5.49-2.169 15.694 15.694 0 0 0-7.361 5.832 16.069 16.069 0 0 0-2.784 9.049v7.876h31.297v-7.87c0-3.239-.974-6.4-2.791-9.06a15.682 15.682 0 0 0-7.38-5.827Z"/>
    <path fill="#516F90" d="M61.599 60.801c1.228 0 2.44-.281 3.545-.825a8.145 8.145 0 0 0 2.834-2.313c-.289-.13-.584-.25-.883-.365a8.057 8.057 0 0 1-5.49 2.169 8.057 8.057 0 0 1-5.49-2.169 16 16 0 0 0-.885.37 8.145 8.145 0 0 0 2.831 2.308 8.02 8.02 0 0 0 3.538.825Z"/>
    <path fill="#99AFC4" d="M51.406 38.311H51.4a1.36 1.36 0 0 0-1.35 1.37v4.227c0 .757.604 1.37 1.35 1.37h.005a1.36 1.36 0 0 0 1.35-1.37v-4.226a1.36 1.36 0 0 0-1.35-1.371Zm20.309 0h-.006a1.36 1.36 0 0 0-1.35 1.37v4.227c0 .757.605 1.37 1.35 1.37h.005a1.36 1.36 0 0 0 1.35-1.37v-4.226a1.36 1.36 0 0 0-1.35-1.371Z"/>
    <path fill="#3E5974" d="M71.716 44.827v-2.562a1.783 1.783 0 0 0-.863-.217c-.49 0-.96.198-1.306.55a1.888 1.888 0 0 0-.542 1.326v.05c0 .418-.163.819-.455 1.115a1.541 1.541 0 0 1-1.098.462H55.958c-.412 0-.807-.167-1.099-.462a1.59 1.59 0 0 1-.455-1.116 1.94 1.94 0 0 0-.546-1.359 1.882 1.882 0 0 0-1.334-.566 1.82 1.82 0 0 0-1.07.37v3.807c0 1.351.263 2.69.773 3.938a10.3 10.3 0 0 0 2.2 3.337 10.12 10.12 0 0 0 3.291 2.227c1.23.515 2.549.78 3.88.777 2.686 0 5.262-1.083 7.162-3.012a10.366 10.366 0 0 0 2.966-7.273l-.01-1.392Zm-6.963 5.537a3.997 3.997 0 0 1-2.764 1.153 4.64 4.64 0 0 1-2.952-1.148.51.51 0 0 1 .298-.886.494.494 0 0 1 .361.125c.097.082 2.266 1.963 4.382 0a.496.496 0 0 1 .707.033.513.513 0 0 1-.032.717v.006Z"/>
    <path fill="#99AFC4" d="M18.635 56.036a9.99 9.99 0 0 1-5.073-1.37v5.694h10.29v-5.776a10.028 10.028 0 0 1-5.217 1.452Z"/>
    <path fill="#99AFC4" d="M18.634 25.883c-2.7 0-5.288 1.089-7.196 3.027a10.415 10.415 0 0 0-2.981 7.307v9.47c0 2.74 1.072 5.368 2.98 7.306a10.099 10.099 0 0 0 7.197 3.027 10.1 10.1 0 0 0 7.196-3.027 10.415 10.415 0 0 0 2.98-7.307v-9.453a10.471 10.471 0 0 0-.77-3.96 10.347 10.347 0 0 0-2.204-3.357 10.168 10.168 0 0 0-3.304-2.244 10.042 10.042 0 0 0-3.898-.789Z"/>
    <path fill="#3E5974" d="M24.16 57.56a8.11 8.11 0 0 1-5.528 2.183 8.11 8.11 0 0 1-5.527-2.184 15.8 15.8 0 0 0-7.412 5.872 16.179 16.179 0 0 0-2.802 9.112v7.93h31.505v-7.93c0-3.259-.98-6.44-2.81-9.118a15.79 15.79 0 0 0-7.426-5.866Z"/>
    <path fill="#516F90" d="M18.625 61.084a8.076 8.076 0 0 0 3.57-.828 8.201 8.201 0 0 0 2.857-2.327c-.294-.13-.59-.256-.889-.37a8.11 8.11 0 0 1-5.527 2.184 8.11 8.11 0 0 1-5.528-2.184c-.3.114-.6.24-.89.375a8.198 8.198 0 0 0 2.848 2.32 8.072 8.072 0 0 0 3.559.83Zm.01-5.048a9.99 9.99 0 0 1-5.073-1.37v.293c2.33 2.143 7.081 1.942 7.081 1.942a13.902 13.902 0 0 0 3.214-.24v-2.077a10.028 10.028 0 0 1-5.222 1.452ZM2.97 50.26a5.637 5.637 0 0 0 .678 2.693 5.535 5.535 0 0 0 1.876 2.023 5.661 5.661 0 0 0-.18 3.576 5.583 5.583 0 0 0 1.996 2.95 15.39 15.39 0 0 1 1.125-1.087 5.589 5.589 0 0 1-1.654-2.863 5.65 5.65 0 0 1 .245-3.31 5.544 5.544 0 0 1-1.703-1.732 5.667 5.667 0 0 1-.572-4.741 5.608 5.608 0 0 1 1.241-2.099 5.595 5.595 0 0 1-1.328-2.06 5.665 5.665 0 0 1 .412-4.787 5.553 5.553 0 0 1 1.66-1.795 5.487 5.487 0 0 0-2.426 1.497 5.61 5.61 0 0 0-1.368 2.526 5.67 5.67 0 0 0 .055 2.883c.267.94.771 1.791 1.463 2.47a5.616 5.616 0 0 0-1.52 3.856Z"/>
    <path fill="#3E5974" d="M34.31 42.347c0-1.22-.394-2.407-1.12-3.38a5.504 5.504 0 0 0-2.903-2.005v-1.724a12.113 12.113 0 0 0-1.414-5.7c-.054-.108-.118-.217-.177-.326l-.032-.055c-.054-.092-.107-.184-.166-.271l-.032-.055c-.129-.212-.268-.413-.407-.614a.525.525 0 0 1-.043-.06l-.193-.256v-.038c-.075-.098-.15-.196-.23-.288l-.027-.033a3.544 3.544 0 0 0-.209-.245l-.048-.06c-.16-.179-.327-.358-.498-.543l-.048-.055-.22-.206-.053-.05a3.776 3.776 0 0 0-.268-.244l-.263-.223-.064-.054-.241-.19-.086-.028-.289-.212-.054-.038-.246-.169-.075-.049a5.576 5.576 0 0 0-.294-.19l-.311-.185-.07-.038-.257-.142-.075-.065-.321-.163h-.038a3.59 3.59 0 0 0-.289-.136l-.086-.038-.273-.12h-.059l-.332-.146h-.075l-.273-.093-.091-.032-.337-.104-.354-.098h-.096l-.274-.065h-.09l-.354-.07h-.06l-.304-.05h-.107l-.306-.038h-.064l-.37-.032h-1.752l-.38.032h-.074l-.316.038h-.086l-.375.06-.359.07h-.075c-.252.055-.503.12-.75.197h-.048l-.343.108h-.027c-.25.087-.496.18-.739.278h-.032c-.246.098-.487.212-.723.326-.368.178-.726.378-1.071.598A11.891 11.891 0 0 0 8.13 29.43a12.11 12.11 0 0 0-1.474 5.808v1.79a5.56 5.56 0 0 0-1.623 1.803 5.67 5.67 0 0 0-.373 4.753 5.6 5.6 0 0 0 1.32 2.042 5.603 5.603 0 0 0-1.241 2.098 5.667 5.667 0 0 0 .568 4.74 5.544 5.544 0 0 0 1.702 1.734 5.683 5.683 0 0 0-.238 3.308 5.621 5.621 0 0 0 1.647 2.865 15.659 15.659 0 0 1 4.686-2.812 7.8 7.8 0 0 0 .461.397V54.66a10.256 10.256 0 0 1-3.748-3.79 10.457 10.457 0 0 1-1.367-5.19v-6.526a8.51 8.51 0 0 0 2.878 2.094 8.395 8.395 0 0 0 6.925-.05 8.517 8.517 0 0 0 2.848-2.136h.075a6.01 6.01 0 0 0 3.715 1.289 6.01 6.01 0 0 0 3.714-1.29h.236v6.62a10.458 10.458 0 0 1-1.332 5.12 10.26 10.26 0 0 1-3.655 3.778v3.263a4.87 4.87 0 0 0 .306-.267 15.748 15.748 0 0 1 5.741 3.808 5.581 5.581 0 0 0 1.909-2.938 5.656 5.656 0 0 0-.205-3.513 5.544 5.544 0 0 0 1.703-1.732 5.669 5.669 0 0 0 .572-4.741 5.603 5.603 0 0 0-1.242-2.098 5.574 5.574 0 0 0 1.238-1.835 5.65 5.65 0 0 0 .434-2.18Z"/>
    <path fill="#516F90" d="M28.888 29.62a11.888 11.888 0 0 0-4.341-4.608 11.647 11.647 0 0 0-6.056-1.69 11.65 11.65 0 0 0-6.288 1.833 8.41 8.41 0 0 1 5.52.154 8.562 8.562 0 0 1 4.271 3.555 5.99 5.99 0 0 1 6.894.756Z"/>
    <path fill="#F56271" d="M21.117 39.154h.08l-.048-.038-.032.038Z"/>
    <path fill="#B6C7D6" d="M39.998 49.575a12.61 12.61 0 0 1-6.385-1.724v7.163h12.952V47.72a12.634 12.634 0 0 1-6.567 1.855Z"/>
    <path fill="#99AFC4" d="M39.998 49.575a12.61 12.61 0 0 1-6.385-1.724v.37c2.93 2.719 8.908 2.436 8.908 2.436a17.475 17.475 0 0 0 4.044-.299V47.72a12.634 12.634 0 0 1-6.567 1.855Z"/>
    <path fill="#B6C7D6" d="M39.995 11.612c-3.403 0-6.668 1.37-9.078 3.812a13.156 13.156 0 0 0-3.776 9.208v11.89c0 3.462 1.354 6.782 3.765 9.23a12.757 12.757 0 0 0 9.09 3.823 12.67 12.67 0 0 0 4.916-.993 12.812 12.812 0 0 0 4.165-2.83 13.036 13.036 0 0 0 2.78-4.236c.642-1.584.97-3.281.967-4.994v-11.89c0-1.71-.332-3.404-.977-4.984a13.038 13.038 0 0 0-2.781-4.224 12.812 12.812 0 0 0-4.162-2.823 12.655 12.655 0 0 0-4.909-.99Z"/>
    <path fill="#516F90" d="M46.945 51.468a10.225 10.225 0 0 1-6.963 2.748c-2.578 0-5.062-.98-6.963-2.748a19.864 19.864 0 0 0-9.327 7.38 20.34 20.34 0 0 0-3.528 11.46v9.975H59.8v-9.964a20.34 20.34 0 0 0-3.525-11.467 19.864 19.864 0 0 0-9.33-7.384Z"/>
    <path fill="#3E5974" d="M39.986 55.906c1.555 0 3.09-.358 4.488-1.047a10.321 10.321 0 0 0 3.59-2.929c-.37-.163-.74-.32-1.12-.462a10.224 10.224 0 0 1-6.963 2.748c-2.578 0-5.062-.98-6.963-2.748-.38.141-.75.299-1.12.467a10.32 10.32 0 0 0 3.595 2.93c1.4.687 2.937 1.043 4.493 1.04Zm9.33-36.87v9.79a2.266 2.266 0 0 0 .638 1.595 2.2 2.2 0 0 0 1.564.662 2.173 2.173 0 0 0 1.56-.653 2.237 2.237 0 0 0 .647-1.582v-9.79l-4.409-.022Zm-22.535 0v9.839c.002.597.236 1.169.651 1.59.416.423.979.66 1.567.662a2.2 2.2 0 0 0 1.568-.66 2.27 2.27 0 0 0 .65-1.592v-9.839H26.78Z"/>
    <path fill="#3E5974" d="M46.455 11.024H34.082a7.218 7.218 0 0 0-5.141 2.162 7.444 7.444 0 0 0-2.132 5.219v3.91h4.413v-1.892a2.326 2.326 0 0 1 .664-1.625 2.258 2.258 0 0 1 1.602-.67 2.26 2.26 0 0 1 1.607.669c1.376 1.403 8.987 1.55 10.273.092a2.23 2.23 0 0 1 1.687-.761c.6 0 1.174.241 1.598.672.424.43.662 1.014.662 1.623v1.893h4.414v-3.911a7.444 7.444 0 0 0-2.133-5.22 7.218 7.218 0 0 0-5.14-2.16Z"/>
    <path fill="#B6C7D6" d="M29.106 29.87c0-.96-.766-1.74-1.711-1.74-.945 0-1.711.78-1.711 1.74v5.347c0 .96.766 1.74 1.71 1.74.946 0 1.712-.78 1.712-1.74V29.87Zm25.734 0c0-.96-.766-1.74-1.71-1.74-.946 0-1.712.78-1.712 1.74v5.347c0 .96.766 1.74 1.711 1.74.945 0 1.712-.78 1.712-1.74V29.87Z"/>
    <path fill="#FF5C35" d="M40.034 7.701c1.088 0 1.97-.896 1.97-2.001 0-1.106-.882-2.002-1.97-2.002-1.089 0-1.971.896-1.971 2.002 0 1.105.882 2.001 1.97 2.001ZM16.018 19.4c1.089 0 1.971-.896 1.971-2.001s-.882-2.002-1.971-2.002-1.971.897-1.971 2.002c0 1.105.882 2.002 1.971 2.002Zm47.914 0c1.088 0 1.971-.896 1.971-2.001s-.883-2.002-1.971-2.002c-1.089 0-1.971.897-1.971 2.002 0 1.105.882 2.002 1.97 2.002Z"/>
    <path fill="#387D4E" d="M10.95 78.216a3.288 3.288 0 0 1 1.676-1.044 3.349 3.349 0 0 1 .473-3.473c.49-.596 1.169-1 1.92-1.14v-.179a.171.171 0 0 0 0-.054.806.806 0 0 1 0-.114v-.169a.24.24 0 0 0 0-.06v-.304a.87.87 0 0 1 0-.126l-.031-.135-.032-.142v-.049c0-.016 0-.07-.027-.103a.16.16 0 0 0 0-.05c0-.032 0-.07-.027-.102v-.038a.876.876 0 0 1-.027-.115c0-.049-.027-.098-.037-.147v-.043a.736.736 0 0 1-.027-.103v-.033a.947.947 0 0 1-.038-.114l-.048-.136a1.246 1.246 0 0 0-.043-.13v-.028c0-.038-.026-.076-.037-.109l-.048-.136-.043-.109-.054-.13v-.027c-.037-.076-.07-.158-.101-.234a.587.587 0 0 0-.043-.103l-.049-.11-.117-.233-.065-.114a.613.613 0 0 0-.053-.104v-.032l-.048-.082v-.032l-.049-.082v-.027l-.048-.087-.064-.11-.054-.086-.053-.087-.054-.082-.134-.195c-.07-.098-.134-.196-.203-.289l-.129-.163-.048-.065-.054-.07-.059-.072-.064-.076c-.112-.13-.22-.255-.326-.37a10.179 10.179 0 0 0-.536-.543l-.171-.153a7.508 7.508 0 0 0-.804-.636 10.639 10.639 0 0 0-3.152 3.025 10.82 10.82 0 0 0-1.69 4.056 5.437 5.437 0 0 1 3.312 1.87 5.593 5.593 0 0 1 1.316 3.607c0 .114-.006.218-.01.321Z"/>
    <path fill="#4FB06D" d="M5.502 72.364a5.382 5.382 0 0 0-2.646.688A5.483 5.483 0 0 0 .87 74.957a5.604 5.604 0 0 0-.28 5.363h9.818a5.605 5.605 0 0 0-.279-5.36 5.483 5.483 0 0 0-1.983-1.906 5.382 5.382 0 0 0-2.645-.69Z"/>
    <path fill="#7BC492" d="M10.18 80.321h10.798a3.344 3.344 0 0 0-.693-1.971 3.259 3.259 0 0 0-1.718-1.156 3.357 3.357 0 0 0-.223-3.167 3.283 3.283 0 0 0-1.18-1.116 3.222 3.222 0 0 0-3.127 0 3.27 3.27 0 0 0-1.18 1.116 3.348 3.348 0 0 0-.224 3.167 3.25 3.25 0 0 0-1.744 1.145 3.343 3.343 0 0 0-.71 1.982Z"/>
    <path fill="#4FB06D" d="M66.348 80.201h13.46a4.146 4.146 0 0 0-.862-2.455 4.04 4.04 0 0 0-2.143-1.433 4.165 4.165 0 0 0-.023-3.573 4.1 4.1 0 0 0-1.135-1.424 4.023 4.023 0 0 0-1.632-.782 3.988 3.988 0 0 0-1.804.016 4.025 4.025 0 0 0-1.619.81c-.473.39-.852.883-1.111 1.443a4.165 4.165 0 0 0-.384 1.79c0 .582.121 1.156.354 1.687a4.037 4.037 0 0 0-2.211 1.422 4.145 4.145 0 0 0-.89 2.5Z"/>
    <path fill="#7BC492" d="M66.563 74.534a3.901 3.901 0 0 0-2.777 1.17 4.023 4.023 0 0 0-1.15 2.822 4.1 4.1 0 0 0 .392 1.74h7.075c.257-.543.39-1.138.391-1.74a4.023 4.023 0 0 0-1.151-2.823 3.901 3.901 0 0 0-2.78-1.17Z"/>
    <path fill="#387D4E" d="M78.748 76.323c.576 0 1.044-.474 1.044-1.06 0-.586-.468-1.06-1.044-1.06-.577 0-1.045.474-1.045 1.06 0 .585.468 1.06 1.045 1.06Z"/>
    <path fill="#fff" d="M45.357 66.522a3.694 3.694 0 0 1-1.96-1.035 3.789 3.789 0 0 1-1.034-1.983.059.059 0 0 0-.112 0 3.782 3.782 0 0 1-1.034 1.984c-.535.54-1.219.9-1.96 1.034a.06.06 0 0 0-.042.058.059.059 0 0 0 .041.057 3.698 3.698 0 0 1 1.96 1.036 3.79 3.79 0 0 1 1.034 1.982.06.06 0 0 0 .056.042.06.06 0 0 0 .056-.042 3.83 3.83 0 0 1 1.04-1.977 3.731 3.731 0 0 1 1.955-1.041.06.06 0 0 0 0-.114Zm-6.115-1.898a2.792 2.792 0 0 1-1.492-.777 2.863 2.863 0 0 1-.79-1.502.044.044 0 0 0-.012-.03.042.042 0 0 0-.06 0 .044.044 0 0 0-.013.03 2.87 2.87 0 0 1-.784 1.497c-.405.407-.921.68-1.482.782a.043.043 0 0 0-.03.013.044.044 0 0 0 .03.074 2.798 2.798 0 0 1 1.483.784c.405.408.678.931.783 1.5 0 .012.004.023.012.031a.043.043 0 0 0 .06 0 .044.044 0 0 0 .014-.03 2.865 2.865 0 0 1 .78-1.5c.403-.408.92-.682 1.48-.785a.043.043 0 0 0 .033-.005.045.045 0 0 0 .016-.061.044.044 0 0 0-.028-.02Zm1.285 6a2.051 2.051 0 0 1-1.088-.578 2.104 2.104 0 0 1-.572-1.103c0-.033-.06-.033-.065 0a2.115 2.115 0 0 1-.576 1.103c-.297.3-.677.501-1.09.578a.033.033 0 0 0 0 .06c.413.076.793.277 1.09.577.298.3.499.685.576 1.103 0 .033.054.033.065 0 .076-.418.275-.803.572-1.103.296-.3.676-.502 1.088-.578a.033.033 0 0 0 0-.06Z"/>
  </g>
</svg>
