<svg xmlns="http://www.w3.org/2000/svg" width="70" height="70" fill="none" viewBox="0 0 70 70">
  <g clip-path="url(#a)">
    <mask id="b" width="70" height="70" x="0" y="0" maskUnits="userSpaceOnUse" style="mask-type:luminance">
      <path fill="#fff" d="M70 0H0v69.825h70V0Z"/>
    </mask>
    <g mask="url(#b)">
      <path fill="#FF4F00" d="M69.92 0H.093v69.825h69.825V0Z"/>
      <path fill="#FF4F00" d="M69.92 34.913C69.92 15.63 54.287 0 35.006 0 15.725 0 .094 15.631.094 34.913c0 19.282 15.63 34.912 34.913 34.912 19.281 0 34.912-15.63 34.912-34.912Z"/>
      <path fill="#FFFDF9" d="m9.916 38.467-.01-.031 6.295-5.764v-2.776h-10.1v2.776h6.033l.01.027-6.234 5.768v2.777h10.393v-2.777H9.916ZM22.5 29.632c-1.165 0-2.114.175-2.848.527-.684.306-1.26.81-1.653 1.448a5.273 5.273 0 0 0-.693 2.095l3.064.431c.111-.653.333-1.116.665-1.389a2.03 2.03 0 0 1 1.317-.407c.622 0 1.073.166 1.354.499.277.333.419.793.419 1.4v.303h-2.947c-1.5 0-2.577.332-3.232.997-.655.666-.982 1.543-.981 2.634 0 1.118.327 1.95.98 2.494.655.546 1.477.817 2.468.813 1.23 0 2.175-.422 2.837-1.268.391-.52.67-1.115.82-1.748h.111l.423 2.777h2.777v-7.032c0-1.453-.383-2.579-1.15-3.377-.765-.798-2.01-1.197-3.73-1.197Zm.971 8.668c-.44.367-1.017.55-1.736.55-.592 0-1.003-.103-1.233-.31a1.015 1.015 0 0 1-.348-.79 1.038 1.038 0 0 1 .288-.767 1.071 1.071 0 0 1 .79-.288h2.898v.191a1.765 1.765 0 0 1-.659 1.414Zm20.696-8.405h-3.28v11.35h3.28v-11.35Zm19.383 0c-.927 0-1.657.328-2.192.982-.383.47-.675 1.164-.874 2.083h-.097l-.429-3.065h-2.802v11.35h3.281v-5.82c0-.735.172-1.297.516-1.688.343-.392.977-.587 1.902-.587H64.1v-3.255h-.55Zm-9.659.371c-.766-.456-1.732-.683-2.898-.682-1.835 0-3.272.523-4.31 1.568-1.037 1.045-1.556 2.486-1.556 4.323a6.893 6.893 0 0 0 .706 3.208 5.095 5.095 0 0 0 2.013 2.12c.869.502 1.902.754 3.1.755 1.037 0 1.903-.16 2.598-.48a4.175 4.175 0 0 0 1.653-1.305 5.69 5.69 0 0 0 .898-1.855l-2.827-.792a2.615 2.615 0 0 1-.665 1.151c-.32.32-.854.479-1.605.479-.892 0-1.557-.256-1.995-.767-.318-.369-.517-.896-.605-1.58h7.74c.031-.319.048-.586.048-.802V34.9a6.299 6.299 0 0 0-.574-2.754 4.31 4.31 0 0 0-1.72-1.88ZM50.9 32.289c1.33 0 2.084.655 2.262 1.964h-4.705c.075-.437.255-.849.527-1.199.431-.51 1.07-.766 1.916-.765Zm-8.334-6.967a1.84 1.84 0 0 0-1.342.515 1.773 1.773 0 0 0-.527 1.33 1.807 1.807 0 0 0 1.869 1.868 1.773 1.773 0 0 0 1.724-1.145c.088-.23.13-.476.12-.723a1.765 1.765 0 0 0-1.844-1.845Zm-6.775 4.262c-1.117 0-2.015.35-2.693 1.052-.502.52-.871 1.296-1.106 2.328h-.105l-.429-3.064h-2.802v14.606h3.281V38.49h.12c.1.401.24.791.419 1.164a3.303 3.303 0 0 0 1.305 1.46 3.836 3.836 0 0 0 1.939.467c1.373 0 2.42-.535 3.138-1.605.718-1.07 1.077-2.562 1.077-4.477 0-1.85-.348-3.299-1.043-4.345-.695-1.047-1.728-1.57-3.1-1.57Zm.333 8.224c-.383.554-.981.831-1.796.831a2.118 2.118 0 0 1-1.76-.803c-.424-.533-.635-1.263-.634-2.19v-.216c0-.94.211-1.661.635-2.161.423-.5 1.01-.747 1.76-.742.828 0 1.43.263 1.806.79.376.526.564 1.26.564 2.203.002.974-.188 1.737-.572 2.288h-.003Z"/>
    </g>
  </g>
  <defs>
    <clipPath id="a">
      <path fill="#fff" d="M0 0h70v70H0z"/>
    </clipPath>
  </defs>
</svg>
